<svg version="1.0" xmlns="http://www.w3.org/2000/svg" width="2666.667" height="2666.667" viewBox="0 0 2000 2000"><path d="M975.3 559.7c-1.2 3.5-8.9 12.1-14.3 16.2-5.9 4.4-16.3 9.9-22.5 11.7-12.9 3.9-19.2 5-33 5.9-19.7 1.2-23 1.6-30.2 3.1-17.6 3.6-43.3 13.9-59.8 24-2.2 1.3-5.8 3.4-7.9 4.5-2.1 1.1-4.4 2.5-5 3-.6.5-4.2 3-8.1 5.6-6.6 4.3-21.4 15.1-22.5 16.3-.3.3-2.7 2.4-5.5 4.5-8.8 7.1-10.7 8.8-25 23-12.5 12.4-17 17.3-23.8 25.5-8.2 9.8-24.7 34.6-24.7 37 0 .5-.5 1-1 1-.6 0-.9.3-.8.7.1.5-1 3.3-2.4 6.3-5.1 10.8-5.8 12.9-4.5 13.7 1.2.8 1.5.8 8.2 1.8 2.2.3 5.1.7 6.4 1 5.2 1 20.2 1.9 32.1 1.9 25.6 0 42.8-2.6 71.5-10.8.6-.2 1.9-.6 3-1 1.1-.5 3.8-1.5 6-2.3 7.8-2.8 10.1-3.9 21.5-9.6 11.8-6 21.5-12.2 33-21 5.8-4.4 44.5-42.6 51-50.2 1.4-1.7 5.4-6.4 9-10.6 12.3-14.3 23.3-29.8 29.5-41.4 3.5-6.7 10.3-22.3 11-25.5.2-.8.4-1.5.5-1.5.1 0 .3-.8.5-1.8s1.3-5.1 2.5-9c1.2-4 2.4-8.2 2.6-9.4.2-1.2 1.3-4.9 2.3-8.2 1-3.4 1.7-6.1 1.5-6.1-.3 0-.7.8-1.1 1.7zM1025.1 564.2c.5 2.4 1.2 5 1.6 5.8.3.8.5 1.9.4 2.4-.1.4.4 1.4 1 2.2.6.8.9 1.4.6 1.4-.3 0-.1 1.5.4 3.2.6 1.8 1.2 4 1.4 4.8.2.8.4 1.7.5 2 .1.3.3.9.4 1.5.1.5.5 1.7.8 2.5.3.8 1.6 4.4 2.8 8 1.2 3.6 3.3 8.6 4.6 11.2 1.3 2.7 2.1 4.8 1.9 4.8-.3 0 .9 2.3 2.5 5 1.7 2.8 3 5.3 3 5.5 0 1.1 17.8 26.1 21.5 30.1.6.6 2.8 3.2 5 5.9 12.4 14.8 45.7 49.2 54 55.7 1.6 1.3 3.7 3 4.6 3.8 2.8 2.6 5.2 4.4 12.9 9.6 13 8.8 20.5 13 38 20.7 3.2 1.4 17.6 6.4 21 7.2 2.8.7 13.5 3.3 16.5 4.1 20.6 5 56.5 6.3 80.3 2.8 8.7-1.2 14.7-2.5 15.3-3.2.7-.7-.3-3.3-5.7-14.7-3.2-6.9-7.8-14.9-8.6-15.3-.5-.2-.8-.8-.8-1.4 0-.8-8.9-14.4-11.5-17.4-.5-.7-2.1-2.7-3.5-4.5-1.4-1.8-3-3.7-3.5-4.3-.6-.6-3-3.6-5.5-6.6-8.8-10.8-34.9-36-46.6-45-1.1-.8-4-3.1-6.4-5.1-18.6-14.8-49.7-33.2-69-40.9-5-2.1-22.5-8.2-22.5-7.9 0 0-1.1-.2-2.5-.5s-3.6-.8-5-1c-1.4-.3-3.6-.7-5-1-2.5-.6-9.5-1.2-25-2.1-4.7-.3-10-.7-11.7-1-1.8-.3-4.5-.7-6-.9-1.6-.2-4.8-.9-7.3-1.6-2.5-.6-5-1.2-5.7-1.3-.7-.2-1.6-.6-1.9-1-.4-.4-1.4-.7-2.3-.7-2.1 0-18.1-8-18.1-9.1 0-.5-.6-.9-1.3-.9-1.6 0-13.7-11.9-13.7-13.5 0-.7-.6-1.8-1.4-2.4-1.2-1-1.3-.5-.5 3.1zM707.8 579.5c-.2.1-3 .5-6.3.9-3.3.3-7.1.8-8.5 1.1-1.3.3-4 .7-6 1-2 .3-4.7.8-6 1.1-9.3 2-8.4 1.8-14 3.3-17.1 4.6-30.4 8.9-51 16.3-9.1 3.3-17.6 6.5-19 7.1-1.4.6-2.7 1.1-3 1.2-.3.1-1.8.7-3.3 1.3-1.6.7-3.3 1.2-3.8 1.2s-.9.4-.9.8-2.2 1.6-5 2.7c-2.7 1.1-5 2.3-5 2.7 0 .4-.4.8-1 .8-1.4 0-11.4 6.5-20.4 13.4-7 5.3-25.3 22.7-29.7 28.3-3.2 4.1-11.5 14.9-13.5 17.8-9.7 13.8-23.3 39.6-29 54.8-.9 2.3-2 5.1-2.4 6.2-2.4 5.8-4.3 11.3-4.7 13.4-.2 1.4-.6 2.8-.9 3.3-.7 1.1-3.4 11.6-3.4 13.2 0 2.3 30.1.7 54.5-2.9 1.1-.2 3.9-.6 6.2-.9 3.5-.5 10.3-1.9 23.6-5.1 1-.2 2.7-.7 3.7-1 1-.3 2.7-.7 3.7-.9 1-.2 5.2-1.6 9.3-3.1 4.1-1.5 8-2.8 8.5-2.9.6-.2 2.3-.8 3.8-1.4 1.6-.7 3.1-1.2 3.4-1.2.5 0 25.5-12.3 30.2-14.9 1.4-.8 3.2-2 3.9-2.8.7-.7 2-1.3 2.8-1.3.8 0 1.4-.4 1.4-.8s1.3-1.5 2.9-2.5c17.9-10.5 46.3-39 62.2-62.2 1.9-2.8 3.7-5.2 4.2-5.3.4-.2.7-1 .7-1.8s.4-1.4.8-1.4c.5 0 1.7-1.7 2.9-3.8 3.7-6.9 15.8-26.2 20.3-32.5 5.7-7.8 18.7-21.1 26.2-26.5 6.6-4.9 15.2-9.3 22.6-11.7 5.4-1.7 6.4-2.4 3.5-2.4-2.7.1-19.2-1.2-23.2-1.7s-40.8-1.3-41.3-.9zM1260.8 579.6c-.2.1-4.1.5-8.8.8-4.7.3-11.9.8-16 1.2-4.1.4-8.1.7-8.7.7-1.3 0-.8 1.2.5 1.2 1.7.1 9.2 3 13.7 5.3 18.8 9.4 32.8 24 50.5 52.7 11.7 18.9 19.4 30.3 25.6 38 2.7 3.3 5.8 7.1 6.9 8.5 3.8 4.7 26 26.6 30 29.6 2.2 1.6 4.9 3.7 5.9 4.7 3 2.6 20.4 14 26.6 17.4 3 1.6 6.4 3.5 7.5 4.1 1.1.6 5.2 2.5 9 4.2 3.9 1.7 7.9 3.5 9 4.1 5.3 2.5 28.1 9.7 33.5 10.5 1.9.3 4 .9 4.5 1.2.6.4 1.5.7 2 .8.6.1 2.6.5 4.5.8 1.9.4 4.2.9 5 1.1.8.2 3.3.7 5.5 1 2.2.2 5.1.7 6.5 1 5.8 1.1 12.1 1.8 28.5 3 18.9 1.4 25.6 1.4 26.1 0 .7-1.7-3.8-17-9-30.7-4.1-10.8-12.4-29.7-13.6-30.8-.3-.3-1.8-3-3.3-6-1.5-3-3.9-7.3-5.3-9.5-1.3-2.2-3-5-3.6-6.3-.6-1.2-1.5-2.2-2-2.2-.4 0-.8-.6-.8-1.3 0-.7-.9-2.3-2-3.5-1.1-1.2-2-2.4-2-2.7 0-.6-9.3-12.7-13.4-17.4-3.2-3.6-17.9-18.3-21.3-21.3-5.1-4.4-17.4-13.2-23.8-17-5.9-3.6-21-11.2-23-11.6-.9-.2-13.5-4.9-18-6.7-1.1-.5-2.2-.9-2.5-1-.3-.1-1.2-.5-2-.8-3.3-1.4-34.6-11.9-36.5-12.2-1.1-.2-4.7-1.1-8-2-3.3-1-6.7-1.9-7.5-2-.8-.2-1.5-.4-1.5-.5 0-.2-2.6-.8-6-1.5-10-1.9-20.6-3.8-23.5-4.1-3.9-.5-38.8-1.2-39.2-.8z"/><path d="M1501 624.5c0 .3 2.4 1.6 5.3 2.9 14.4 6.4 27.5 22.9 34.2 43.2 1.4 4.5 2.7 8.8 2.9 9.5.1.8.7 2.4 1.4 3.6.7 1.2 1.2 2.6 1.2 3.2 0 4 16.1 34.2 25.1 47.1 2.4 3.4 4.9 7 5.4 7.9.6.9 1.2 1.8 1.5 2.1.3.3 4 4.9 8.3 10.3 4.3 5.3 9.4 11.6 11.5 13.8 2 2.3 4.7 5.3 6 6.8 6.2 7 19.3 19.9 24.2 23.9 3 2.5 5.7 4.8 6 5.2.3.4 1.9 1.4 3.6 2.3 6.6 3.4 5.6 4.5-1.8 2-4-1.4-8.1-2.7-9-2.9-2.3-.5-2.7-.6-20.2-4.9-8.1-1.9-16-3.7-17.5-4-1.4-.2-3.7-.6-5.1-1-1.4-.3-3.6-.8-5-.9-1.4-.2-4.1-.7-6-1.1-1.9-.5-4.2-1-5-1.1-.8-.1-2.8-.5-4.5-.9-5.8-1.2-8-1.5-12.5-2-2.5-.3-5.6-.8-7-1.1-3.5-.7-5.5-1.1-13.7-2.4-7.9-1.3-9.4-1.5-16.8-2.4-2.7-.4-5.7-.9-6.5-1.1-.8-.2-3.7-.6-6.5-1-9.3-1.1-18.1-2.2-23.5-3.1-1.4-.2-5-.7-8-1-3-.3-6.8-.8-8.5-1-1.6-.3-4.1-.6-5.5-.8-1.4-.2-5.6-.6-9.5-1-3.8-.5-8.6-1-10.5-1.3-1.9-.2-4.8-.6-6.5-.7-3.8-.4-14.8-1.6-20-2.2-2.2-.3-6.5-.7-9.5-.9-5.5-.5-13.9-1.4-19.5-2-1.6-.2-6.6-.6-11-1s-9.8-.8-12-1c-2.2-.2-7.1-.7-11-1-3.8-.3-9.6-.8-12.8-1-3.1-.2-6.2-.7-6.7-1-.6-.3-1 0-1 .7 0 .8.8 1.4 1.8 1.4.9 0 10 1.9 20.2 4.2 19.1 4.3 22.4 5 27.5 5.7 1.7.3 4.1.8 5.5 1.1 1.4.3 3.4.7 4.5.9 1.1.2 2.9.6 4 .8 1.1.3 4 .8 6.5 1.2 2.5.4 5.2.9 6 1 .8.1 3.5.6 6 1s5.4.9 6.5 1.1c1.1.3 3.6.7 5.5 1 1.9.3 4.6.7 6 1 1.4.2 4.1.7 6 1 1.9.3 7.3 1.1 11.9 1.9 4.6.8 8.7 1.2 9.2 1 .4-.3 1-.1 1.4.5.3.6 1.8 1 3.3.9 1.5 0 3.8.2 5.2.5 1.3.3 4.2.8 6.5 1.1 2.2.3 6.5 1 9.5 1.5s6.9 1.1 8.5 1.4c5 .7 11.9 1.8 13.5 2.1.8.1 3.5.6 6 1s5.4.9 6.5 1.1c1.1.2 4 .7 6.5.9 2.5.3 5.2.8 6 1 .8.3 3.2.7 5.4 1.1 2.1.3 4.8.8 6 1 1.1.2 3.5.6 5.1.9 3.9.6 7.3 1.3 10.8 2 1.5.3 3.7.7 5 .9 2.7.5 9.6 1.8 11.7 2.2 4.2.8 27.8 5.6 29.5 6.1 1.1.2 3.8.9 6 1.4 5.9 1.4 8.9 2.1 10 2.3.6.2 2.4.6 4 1 1.7.4 5 1.4 7.5 2.2 2.5.7 5.6 1.5 7 1.8 1.4.3 5.7 1.4 9.5 2.6 3.9 1.2 7.9 2.4 9 2.7 1.1.3 2.6 1 3.3 1.6.6.5 1.2.7 1.2.3 0-.3 4.4 1 9.8 3 5.3 1.9 10.2 3.7 10.7 3.8 1.4.4 4.3 1.6 9.2 3.7 2.3 1.1 4.7 1.9 5.3 1.9.9 0 3.6 1.1 13.5 5.5 1.7.7 4.9 2 7.2 2.9 5.2 1.9 10.8 4.4 24.3 10.9 5.8 2.8 10.7 5.1 11 5.1.9.1 10.4 5 11 5.6.3.3 1.9 1.2 3.5 2 1.7.8 3.2 1.8 3.5 2.1.3.3 1.9 1.3 3.5 2.2 2.5 1.2 10.1 6.1 18.9 11.9 1.9 1.3 23.6 18 26.9 20.8 5.8 4.8 5.8 4.7 5.2 8.1-.4 1.9-.8 5-1 6.9-.2 1.9-.6 4.8-.9 6.5-3.3 20-4.8 46.4-3.3 58.1 1.7 12.5 9.8 32.1 20.9 50.2 6.3 10.3 9.3 14.1 19.8 25.2 9.7 10.2 17.5 23.3 24 39.9l1.7 4.4 4.1-5.4c7.2-9.7 12.2-21.4 14.6-34.1 1.3-6.9 1.4-27.8.2-33.3-1.9-8.3-7.5-23.8-13.2-36.2-.8-1.7-1.4-3.6-1.4-4.2 0-.6-.3-1.1-.8-1.1-.4 0-1.4-1.5-2.1-3.3-1.4-3-5.7-9.7-9.8-14.9-2.3-2.9-17.4-17.9-24.1-23.9-5.4-4.8-11.1-12.6-13.8-18.8-.9-2-2-4.4-2.5-5.3-2.4-4.6-.7-4.8 3.8-.6 15 13.8 26.4 26 34 36.3 2.9 3.8 5.7 7.5 6.3 8.2.5.7 1 1.6 1 2.1s.6 1.5 1.4 2.1c1.9 1.6 11.4 17.8 16.6 28.1 2.3 4.7 4.6 9.3 5.1 10.2.5 1 .9 2.7.9 3.7 0 1.1.4 2.2.9 2.5.5.3 1.1 1.8 1.4 3.3.3 1.6.8 3.9 1.1 5.3 4.1 16 3.7 33.7-1 49.4-1.4 4.5-2.6 8.6-2.7 9.1-.1.6-1.3 2.5-2.5 4.2-1.2 1.7-2.2 3.4-2.2 3.7 0 .4-.4 1.2-1 1.9-.5.7-4 5.7-7.6 11.2-10.2 15.4-31.4 39.7-44 50.5-1.6 1.4-6.7 5.3-11.4 8.8-4.7 3.4-8.9 6.5-9.5 7-.5.4-4.1 2.7-8 5.2-3.8 2.4-7.2 4.7-7.5 5-.3.3-1.6 1.1-3 1.9-1.4.8-4.1 2.3-6 3.4-3.3 2-3.4 2-1.7.1 5.6-6.2 8.7-10.1 8.7-11.2 0-.6.5-1.2 1-1.2.6 0 1-.5 1-1.1 0-.6 1.2-2.6 2.7-4.6 1.5-1.9 2.8-4.2 2.9-5.1.2-.8.7-1.8 1.2-2.1 1.9-1.3 9.3-19.2 10.7-26.2 1.8-8.7 2.1-15 1.1-26.4-1.3-14.5-2.2-33.1-3.1-60.5-.1-5.2-.3-9.9-.4-10.3 0-.5-3.9 4.4-8.5 11-12.2 17-18.9 26.2-20.6 28.3-.8 1-4 5.3-7 9.6-3 4.2-6 8.2-6.5 8.8-2.6 2.8-7.8 14.8-9.6 22.1-2 7.9-2.1 9.8-3.3 54-.3 8.8-.7 17.1-1 18.5-.3 1.4-1 5.4-1.5 8.8-.6 3.5-1.5 6.9-2 7.6-.6.7-3.4 2.3-6.3 3.7-2.9 1.3-5.5 2.6-5.8 2.9-1 1.1-33 15-34.5 15-.8 0-1.5.4-1.5.8 0 .9-7.8 3.7-9.2 3.4-.5-.1-.8.3-.8 1 0 .6-.3.9-.6.5-.3-.3-3.1.5-6.2 1.9s-6.3 2.6-7.2 2.8c-.8.2-2.6.8-4 1.3-2.2.9-10.4 3.6-37.2 12.3-3.2 1-5.8 1.8-5.8 1.7 0-.2 3.7-4.1 8.3-8.8 13.2-13.8 18.3-20.3 26.5-33.4 7.1-11.6 9.5-17.4 10.9-26.5.9-6.1.9-24.8-.1-34-.5-4.1-.8-10.4-.9-14 0-6.2 1.1-18.8 1.8-20.1.2-.3.7-2.6 1-5.2l.7-4.7-7 6.7c-3.8 3.8-10.5 8.9-14.8 11.5-4.4 2.6-9.8 6.3-12.2 8.4-4.4 3.8-14.3 16.3-17.8 22.4-1 1.9-2.3 3.8-2.7 4.1-.5.3-.8.9-.8 1.3.1.3-1.4 3.7-3.3 7.5-5.2 10.3-9.8 24.6-11.2 34.7-.3 2.7-.8 5.7-1 6.7-.2 1-.6 4.6-.9 8-.4 3.4-.8 6.4-1 6.8-.2.3-.7 2.1-1 4-.9 5.7-6.5 22.7-9.2 28.6-2.5 5.2-4.2 6.6-9.5 7.9-1 .2-2.6.6-3.5.8-1 .2-5.6 1.4-10.3 2.6-4.7 1.2-9.6 2.4-11 2.6-1.4.3-3.3.7-4.2 1-1.7.5-4.6 1.2-8.8 2-1.4.3-4.3 1-6.5 1.6-2.2.5-5.1 1.2-6.5 1.5-2.2.4-6.6 1.4-12 2.7-1.5.4-33.9 7.5-37.3 8.1-1 .2-1.5 0-1.2-.6.4-.5 1-.9 1.6-.9 2.9 0 22.7-11.1 28.3-15.9 12.2-10.6 22.3-24.6 24-33.2.6-3.1 5.7-18.6 8.9-26.9 4-10.2 13.2-28.1 15-28.8.4-.2.7-.8.7-1.3 0-.6 1.3-2.4 3-4.2 1.6-1.8 3-3.5 3-3.9 0-1.4-11.7 2.5-21.5 7.3-3.5 1.7-9.1 3.3-13.4 3.9-8.2 1.1-13.8 3.3-20.5 7.9-2.5 1.7-4.8 3.1-5.3 3.1s-1.6.8-2.5 1.7c-.9 1-4 3.8-7 6.3-11.2 9.4-22.4 24.3-29.8 39.8-2.2 4.6-4 8.5-4 8.8 0 .4-7.7 12.8-9.2 14.9-.4.5-3.9 5.3-7.7 10.5-3.8 5.2-7.9 10.5-9 11.7-1.2 1.2-2.1 2.6-2.1 3.1 0 1.1-7.2 8.6-8.5 8.8-.5.1-5.5 1.1-11 2.3-13.6 2.8-16.9 3.4-25 4.6-1.1.2-2 .4-2 .5 0 .2-2.4.7-7.5 1.5-2.5.3-6.4 1.1-8.8 1.6-2.3.5-5.9 1.2-8 1.5-4.5.8-6.7 1.2-6.7 1.4 0 .1-1.6.3-3.5.5s-5.1.7-7 1c-3.4.6-6.4 1.1-12.3 2-8.7 1.3-10.5 1.6-12.7 2-2.4.5-8.7 1.3-15.5 2-1.6.2-4 .6-5.2.8-1.3.3-2.3.2-2.3-.4 0-.5.4-.9.9-.9s2.2-.5 3.8-1.1c1.5-.6 2.8-.9 2.8-.8 0 .1 1.9-.8 4.2-2 2.3-1.1 4.7-2.1 5.2-2.1.6 0 4.5-2.1 8.6-4.7 7.9-4.9 16.7-12.7 22.7-20.3 4.6-5.7 11.1-18 13.1-24.5.8-2.8 2.5-8.4 3.7-12.5 4.2-13.9 12-27.7 21.9-38.9 2.9-3.3 2.1-3.6-2.5-1-2.2 1.2-5.7 3.2-7.9 4.3-2.2 1.2-7.2 4.1-11.2 6.5-7.2 4.3-15.7 7.9-20.3 8.7-2.9.6-5.6 1.1-8.8 1.8-2 .4-11.2 5-13.7 6.8-4.2 3.1-12.7 11.5-15.1 15-1.6 2.4-3.1 4.5-3.4 4.8-.3.3-2.3 4.1-4.5 8.5s-5.9 11.3-8.2 15.3c-2.4 4.1-4.3 7.7-4.3 8.1 0 .4-.8 1.6-1.7 2.7-1 1.1-2.7 3.5-3.7 5.4-1.1 1.9-2.2 3.7-2.6 4-.4.3-2.2 3.1-4.1 6.2-1.8 3.2-3.7 5.8-4.1 5.8-.5 0-.8.6-.8 1.3 0 .8-.9 2.2-2 3.2s-2 2.4-2 3.2c0 1.3-.3 1.4-5.5 1.8-1.6.1-6.8.5-11.5.9-14.5 1.2-29.4 1.7-60.7 2-16.6.2-30.6.7-31.2 1.1-.6.3-1.1.2-1.1-.4 0-.7-.8-.7-2.5-.1-1.5.6-2.7.6-3 0-.3-.6-1.5-.6-3 0-1.4.5-2.5.6-2.5.1s-1-.7-2.2-.5c-2.5.5 2.1-1.9 12.6-6.6 8.6-3.8 13.4-7.6 19.7-15.4 2.7-3.4 5.4-6.7 6-7.4 1.2-1.5 9-17.8 9.3-19.6 2.2-11.5 9.6-24.8 19-34.2 6.6-6.5 6.4-6.6-4.5-2.8-13.3 4.6-29.1 12.1-38.2 18.1-12.9 8.6-18.2 15-25.4 30.8-3.4 7.5-13.3 20.5-22.7 29.9l-8.2 8.1-20.7-.1c-11.4-.1-21-.4-21.4-.8-.4-.4-.8-3-1-5.7-.3-6.3-3.7-11.2-9-13-2.9-.9-20.3-1.3-71.3-1.3-37.1-.1-69.2.2-71.3.7-2.2.4-5 1.5-6.3 2.5-2.8 2-5.9 9.3-5.1 12.1.3 1.1-.1 2.8-.7 3.7-1.1 1.4-3.5 1.6-18.5 1.6-9.5 0-17.5-.2-17.7-.5-.3-.3-1.8-.2-3.3.3-2.5.7-3.5.1-11.2-7.9-4.6-4.7-9.5-10-10.9-11.6-4.1-4.9-10.7-15.8-15-24.8-4.2-8.8-11.2-17-19.4-22.3-2.2-1.5-5.2-3.4-6.6-4.3-1.4-.9-4.7-2.8-7.5-4.1-2.7-1.4-5.2-2.7-5.5-3-.6-.6-3.5-1.7-19-7.5-6.3-2.4-11.7-4.2-11.8-4-.2.2 1.7 2.5 4.3 5.2 10.1 10.3 15.2 19.1 20 34.3 4.1 13.3 12.4 26.5 22.2 35.5 4.1 3.7 11.8 7.7 24.1 12.5 4.2 1.6 5.1 3.1 1.2 2-1.7-.5-3-.5-3 0s-1.3.5-2.9 0c-1.5-.4-3.4-.4-4.2 0-.7.5-1.7.6-2.2.3-.5-.3-15-.7-32.1-.9-36.8-.4-42.4-.6-74.5-2.8-2.1-.2-9-6.8-9.1-8.8 0-.9-8.3-13.2-9.2-13.6-.5-.2-.8-1-.8-1.7 0-.8-.6-2-1.3-2.7-1.7-1.8-5.1-7.1-5.2-8 0-.4-.7-1.5-1.5-2.5s-4.2-7-7.4-13.3c-7.6-14.8-11.3-20.6-16.7-26.1-9.9-10.2-20.2-15.8-31.9-17.3-4.7-.6-10.8-3.3-21.5-9.4-6.6-3.8-13-7.2-14.2-7.6-1.3-.4-2.3-1.2-2.3-1.7s-.8-.9-1.8-.9-2.3-.5-3-1.2c-2.6-2.6-2 0 .6 2.8 3.6 3.7 10.4 13 12.4 16.9.8 1.6 2.5 4.7 3.7 6.8 1.9 3.4 5.9 15.1 9.3 27.2 2.9 10.3 13.1 26.3 22.1 34.6 8.3 7.8 18.7 13.9 33.2 19.4 8.4 3.3 9.3 3.9 4 3.1-4-.6-7.5-1.1-15-2.1-8.3-1.1-11.1-1.6-16.5-2.5-3-.5-7.5-1.2-10-1.5-2.4-.4-4.7-.8-5.1-1-.3-.2-2.4-.5-4.7-.6-2.3-.2-4.2-.6-4.2-.9 0-.3-.8-.6-1.7-.6-3.1-.1-12.8-1.6-13.5-2-.4-.3-2.2-.7-4-.9-1.8-.2-7.1-1.1-11.8-2-10.3-2-10.9-2.1-18.7-3.4-3.5-.6-7.4-1.6-8.7-2.1-1.3-.5-2.6-.7-2.8-.5-.2.2-2.5-.2-5.1-1-2.6-.8-4.7-1.2-4.7-.8 0 .3-3.6-4.1-8-9.8-4.4-5.7-8.3-10.9-8.8-11.4-6.1-7.4-15.7-22.5-20.7-32.5-7.4-14.9-11.4-22-13.5-24-.3-.3-1.8-2.3-3.5-4.5-5.4-7.4-22.7-23.5-25.2-23.5-.6 0-1.3-.4-1.5-.9-.8-2-15.6-8.9-20.3-9.5-9.4-1.2-11.5-1.7-17-4.6-3-1.6-8.3-3.8-11.9-5-7-2.4-9.8-2.4-7.5 0 2.8 2.9 7.9 10.4 7.9 11.6 0 .7.6 1.7 1.3 2.1.6.4 2.5 3.5 4 6.8 1.6 3.3 3.3 6.8 3.8 7.8 2.1 3.9 9.5 24.6 10.4 29 .7 3.3 2.9 9.2 4.7 12.5 1 1.8 1.8 3.9 1.8 4.7 0 .8.4 1.5.8 1.5s1.6 1.5 2.6 3.2c2.5 4.3 19.2 20.8 21.1 20.8.8 0 1.5.3 1.5.7 0 .7 5.4 4.3 7 4.8 1.8.5 16 7.8 15.8 8.1-.2.1-2.4-.2-4.8-.8-2.5-.6-5.3-1-6.3-1-.9 0-1.7-.2-1.7-.6 0-.4-.8-.8-1.7-.8-2.2-.1-7.7-1.2-12.3-2.4-1.9-.5-5.3-1.2-7.5-1.6-2.2-.3-4.4-.8-4.8-1.1-.5-.3-2.3-.7-4-1-1.8-.3-6.8-1.4-11.2-2.4-4.4-1.1-8.9-2.2-10-2.4-1.1-.2-3.1-.6-4.5-1s-3.3-.7-4.2-.7c-1 .1-1.8-.2-1.8-.6 0-.4-1.2-.8-2.7-.9-1.5 0-4.5-.6-6.8-1.3-6.7-1.9-10.9-3-13.8-3.5-7.5-1.1-9.2-2.3-11.9-8.3-2.8-6-6.5-15.2-6.7-16.5 0-.4-.1-.8-.2-1-.1-.5-.8-3.3-1.3-5.5-.3-1.3-.8-3.2-1.1-4.2-.3-1-.7-2.7-.9-3.7-1.1-5.9-1.9-12.3-2.2-15.8-.1-2.2-.3-4.2-.4-4.5-.2-.3-.4-1-.5-1.5 0-.6-.5-3.3-.9-6-1.2-7.4-5.7-20.6-10.9-31.5-2-4.2-10.6-18.8-11.9-20.2-.7-.7-2.5-2.9-3.9-4.8-3.6-4.7-10.8-12-12-12-.5 0-.9-.4-.9-.8s-3-2.3-6.6-4.2c-3.7-2-10.3-7-14.9-11.2l-8.3-7.8.8 3.8c.9 4 1.7 9.1 2.7 16.2.7 5.6.6 18.6-.3 22-1 4.1-1.2 33-.2 36.9.5 2 1.1 4.7 1.4 6 .6 2.8 4.5 12.3 5.3 13.1.4.3 1.3 1.8 2.1 3.5.8 1.6 2.3 3.9 3.3 4.9.9 1.1 1.7 2.4 1.7 2.8 0 .8 6.9 10.5 9.5 13.4.6.6 3 3.5 5.5 6.4 2.5 2.9 7.4 8.2 11 11.8 3.6 3.6 5.6 6.1 4.5 5.7-1.1-.4-3.3-1.1-5-1.5-2.8-.7-14.6-4.4-19-6-5-1.8-12.1-4.2-13.5-4.5-2.8-.7-13.5-4.7-17.7-6.6-2.4-1-4.9-1.9-5.7-1.9-.8 0-1.7-.4-2-.9-.3-.5-1.8-1.2-3.3-1.6-1.5-.3-5-1.7-7.8-2.9-2.7-1.3-7.9-3.6-11.5-5.1-3.6-1.5-12.4-5.7-19.6-9.2-14.3-6.9-13.8-6.4-15-16.3-.2-1.4-.5-4.1-.8-6-1.1-7-1.7-19-2.1-40.5-.4-23-.7-26.7-3.1-35-.2-.6-.5-2-.8-3.1-1.3-5.8-15.7-29-18.8-30.2-.4-.2-.8-.8-.8-1.3s-1.7-3.2-3.7-5.9c-2.1-2.7-4.9-6.5-6.3-8.5-1.4-2-3-4.2-3.5-4.8-.6-.7-3.3-4.4-6-8.2-2.7-3.9-5.2-7.2-5.5-7.5-.3-.3-1.8-2.4-3.4-4.8-1.6-2.3-3-4.2-3.1-4.2-.1 0-.3 7.1-.5 15.7-.2 17.9-.6 27.7-1.4 37.8-1.7 20.8-2.1 30.4-1.6 37 .3 3.5 3 14.9 4 17 .9 1.9 3.2 7.5 3.5 8.5.7 2.8 13.3 23.9 15.5 26 .3.3 2.1 2.5 4 5 3.1 4 3.2 4.3 1 2.9-1.4-.9-5.6-3.5-9.5-5.9-3.8-2.4-7.3-4.9-7.7-5.5-.5-.6-.8-.6-.8 0 0 .5-.5.2-1.1-.8-.5-.9-1.5-1.7-2.1-1.7-2.3 0-25.9-18.8-34.3-27.4-16.7-17-34.9-39.5-38.7-47.9-.7-1.5-1.6-2.7-2-2.7-.5 0-.8-.5-.8-1.1 0-.6-1.3-2.9-2.8-5.2-2.9-4.2-7.3-16.8-7.7-21.7-.1-1.5-.4-3.1-.7-3.6-2-3.8-1.3-26.4 1.3-37 2.6-11 12-33.2 16.3-38.4.7-.8 2-3.1 2.9-5.1.9-2 2.3-4.2 3.2-4.9.8-.7 1.5-1.9 1.5-2.6 0-.8.3-1.4.8-1.4.4 0 1.3-1.3 2-2.8.6-1.6 2-3.7 3-4.8.9-1 3.7-4.6 6.2-7.9 5.7-7.8 9.4-11.8 21.1-23.5 17-16.8 18.8-18.1 15.3-10.3-1.4 3.2-2.9 6.7-3.4 7.8-1.7 4.1-7.7 11.4-14.5 17.6-12.4 11.2-21.5 21-26.6 28.5-2.7 4-4.9 7.8-4.9 8.4 0 .5-.4 1-1 1-.5 0-.9.3-.8.7 0 .5-1 3.3-2.4 6.3-4.4 9.4-10.6 25.3-11.8 30-.7 2.5-1.5 5.4-1.7 6.5-1.2 4.4-1.1 27.3.2 33.5 1.7 8.6 5.1 19 6.9 21.5.9 1.1 1.6 2.8 1.6 3.7 0 1 .4 1.8.8 1.8.5 0 1.7 1.6 2.8 3.5 1 1.9 2.1 3.5 2.5 3.5.3 0 1.1 1.2 1.8 2.6 1 2.2 1.4 2.4 2.6 1.4.9-.7 1.3-1.5 1.1-1.8-.3-.3 0-1.7.8-3.1.7-1.4 3.1-6.2 5.2-10.6 5.4-11.1 12.3-21.2 19.5-28.7 8.8-9.1 15.7-18.6 23.6-32.3 2.7-4.7 10.3-20.9 10.3-22 0-.2.4-1.4.9-2.7.5-1.3 1-2.8 1.1-3.3.1-.6.6-1.7 1.1-2.6 1.8-3.5 3.5-15.2 3.3-24.4-.1-6.9-1.2-24.7-1.9-29.5-.2-1.4-.6-5-.9-8-.4-3-.9-6.2-1.1-7-.2-.8-.7-3.8-1-6.5-1.5-11.9-2-10.5 5-16 2.1-1.7 5.2-4.2 6.9-5.7 1.7-1.4 5.6-4.4 8.6-6.7 3-2.2 6-4.5 6.7-5 2.2-1.9 20.8-13.8 25.3-16.2 2.5-1.3 4.7-2.7 5-3 .3-.3 2.5-1.5 5-2.8 2.5-1.2 5.2-2.6 6-3.1 3.9-2.5 28-13.3 28.9-13 .2.1.7-.2 1-.7.3-.4 8.9-4.1 19.1-8.2 23.5-9.5 28-11.1 28-10.3 0 .4.4.2.8-.3.7-1.1 29.6-10.8 32-10.8.6 0 1.2-.4 1.2-.9s.5-.6 1-.3c.6.3 1.6.3 2.3-.2.6-.4 1.7-.8 2.2-.9.6-.1 3.7-.9 7-1.8s6.7-1.8 7.5-2c9.9-2.5 15.9-3.9 17.5-4.1 1.1-.2 6.3-1.3 11.5-2.5 11.7-2.7 11.8-2.7 16.6-3.4 2.2-.4 4.6-.8 5.4-1.1.8-.2 2.8-.6 4.4-.9 1.6-.3 5.3-1 8.3-1.6 2.9-.6 5.7-.9 6.2-.6.5.4 1.1.3 1.3-.2.1-.4 5.3-1.6 11.3-2.6 6.1-1 11.9-2 13-2.2 1.9-.4 8.6-1.4 13-2 1.1-.1 2-.3 2-.4 0-.2 1.6-.5 8-1.4 4.6-.6 10.8-1.6 13.5-2.1 1.3-.3 4.2-.7 6.5-1 2.2-.3 6.7-1.1 10-1.7 3.3-.5 7.4-1.2 9-1.3 1.7-.2 4.4-.6 6-.9 1.7-.4 4.6-.8 6.5-1.1 1.9-.3 4.4-.7 5.5-.9 2.3-.4 8.7-1.5 13-2.1 4-.6 19.6-3.3 28.5-4.9 1.4-.3 4.1-.7 6-1 1.9-.3 4.6-.8 6-1.1 1.4-.3 3.9-.7 5.5-1 1.7-.2 4.1-.7 5.5-1 1.4-.4 3.4-.8 4.5-.9 1.1-.1 3.4-.5 5-.9 1.7-.4 4.1-.8 5.5-1.1 1.4-.2 4.3-.9 6.5-1.4 2.2-.6 5.6-1.3 7.5-1.7 3.8-.6 6.5-1.3 6.5-1.5 0-.1 1.1-.3 2.5-.6 5.5-.9 12.6-2.7 14-3.5 1.4-.9-3.7-.7-20 .7-3.6.4-8.1.8-10 .9-3.3.3-15.4 1.3-23 2-1.9.2-3.5.4-3.5.5 0 .1-2 .3-4.5.5-7.2.5-19.3 1.5-22 2-1.4.2-4.7.6-7.5.9-12.5 1.3-16.2 1.8-18.5 2.1-1.4.2-5.2.7-8.5 1-3.3.3-7.8.8-10 1.1-2.2.3-5.6.7-7.5.9-1.9.3-5.3.7-7.5.9-2.2.3-6.2.8-9 1.1-2.7.4-6.3.9-8 1.2-1.6.3-4.1.6-5.5.8-8.1.9-12.8 1.6-15 2-1.4.2-4.5.7-7 1-5.4.7-10.6 1.5-13 2-1 .2-4 .7-6.7 1.1-2.6.5-5 .9-5.3.9-.3.1-3 .5-6 .9-3 .5-6.4 1-7.5 1.3-1.1.2-3.3.6-5 .8-1.6.3-4.1.7-5.5 1-1.4.3-3.8.7-5.5 1-4.7.8-10.6 2-14.8 3.1-1.2.3-3.1.6-4.2.8-1.7.3-7.6 1.5-15 3.1-1.1.2-3.5.8-5.2 1.4-1.8.5-3.3.8-3.3.6 0-.3-1.1 0-2.5.5s-3.6 1.2-4.8 1.4c-4.2.9-14 3.6-21.8 6.1-2.1.7-2.2.6-1-.9.7-.9 1.8-1.6 2.3-1.6.5 0 1.5-.6 2.3-1.3.7-.6 2.8-2.3 4.7-3.6 2.8-2.1 32.5-31.8 36.1-36.1.6-.8 3-3.8 5.2-6.5 2.2-2.8 4.2-5.2 4.6-5.5.3-.3 1.8-2.3 3.5-4.5 1.6-2.2 3.9-5.1 5.1-6.5 1.3-1.4 2.3-3 2.3-3.7 0-.7.3-1.3.8-1.3.4 0 1.6-1.6 2.6-3.5 1.1-1.9 2.3-3.5 2.8-3.5.4 0 .8-.6.8-1.3 0-.7.9-2.3 2-3.5 1.1-1.2 2-2.5 2-2.9 0-.5 1.1-2.4 2.3-4.3 3.5-5.2 14.7-27.5 14.7-29.3 0-.3.5-1.8 1.2-3.4.6-1.5 1.2-3 1.3-3.3 7.6-27.8 19.9-46.2 36.8-54.9l6.2-3.2-15 .6c-8.2.3-16.1.7-17.5.9-1.4.3-5.4.7-8.9 1.1-3.5.3-6.7.7-7 .9-.3.2-2.4.7-4.5 1-26.2 4.2-57.3 20.4-105.5 55.1-14 10-16.9 12.5-28.1 23.5-18.1 17.8-29 32.9-40.9 56.5-3 6-5.6 11.2-5.6 11.5-.1.3-.5 1.4-.9 2.5-3.9 10.2-5.4 14.5-8 23.5-2.9 10.2-4.7 18.2-4.2 18.8.3.3.2 1-.4 1.6-.9 1.2-2.2 9.3-2.4 15.6-.1 2.9.2 3.5 1.8 3.3 4.4-.3 10.7-1.2 19.6-2.8 13.2-2.2 13.3-2.3 15-2.9.8-.3 2.9-.7 4.5-1 6.4-1.2 9.1-1.9 10.5-3 1.3-1 1.3-.9.1.6-.7 1-1.7 1.8-2.1 1.8-.4 0-2.5.8-4.6 1.7-2.2.9-4.1 1.7-4.4 1.8-1.1.4-6.7 2.7-10 4.3-1.9.9-3.7 1.7-4 1.7-1.3.1-44.3 21.3-54.5 26.8-14 7.7-18 10.1-18.3 10.9-.2.4-.7.6-1.2.3-.4-.3-1.3.2-2 1s-1.8 1.5-2.5 1.5c-.8 0-1.5.3-1.7.7-.2.5-2.2 2.1-4.6 3.6-3.5 2.2-4.3 2.5-4.8 1.3-.3-.8-.3-1.9 0-2.5.4-.5.2-1.2-.4-1.6-.6-.4-.7-1.2-.3-1.8.4-.7.9-3 1-5.2.5-7.5.7-8.5 1.6-8.5.4 0 .6-.4.2-.9-.7-1.2 4-15.9 7.7-24.1 1.7-3.6 3.4-7.4 3.9-8.5.5-1.1 1.5-2.9 2.1-3.9 5.3-8.1 10.1-16.2 12.2-20.4 2.7-5.3 6.6-16.8 6.9-20.1.1-1.2.5-2.1 1-2.1.4 0 .6-.3.3-.8-.2-.4 0-2.9.5-5.6 2.4-12.9 3.2-47.4 1.5-66.6-.4-4.7-.9-10.3-1.1-12.5-.2-2.2-.6-5.8-.9-8-.3-2.2-.8-5.8-1.1-8-1.2-8.5-1.7-10.7-2.3-10.1-.3.4-.7 2.1-.9 4-.1 1.8-1 5.5-1.8 8.1-.9 2.6-1.8 5.5-2 6.4-1 4.9-16.6 37.4-18.6 38.6-.5.4-.7 1.1-.4 1.6.4.5.1.9-.4.9-.6 0-1.1.7-1.1 1.5s-.4 1.5-1 1.5c-.5 0-1 .4-1 1 0 .9-8.8 15.8-10 17-.5.5-5.6 8.1-7.5 11.2-5.1 8.3-11.1 17.4-11.7 17.6-.5.2-.8.8-.8 1.3 0 .6-1.5 3.3-3.3 6.2-3.2 5.1-14.7 28-15.1 30.1-.2.6-1 2.9-2 5.1-2.4 5.4-8.6 27.1-8.6 29.9 0 1.3-.3 2.6-.7 2.9-1.8 1.9-1.7 29.7.2 39.7 1 5.2 5.4 18 7.5 21.6l1.8 3.2-3.6 4c-2.1 2.1-5 5.6-6.7 7.6-1.6 2.1-4 4.9-5.3 6.4-3 3.5-16.2 21.7-18.2 25.2-4.8 8.4-10.1 17-10.5 17-.2 0-.2-1 .1-2.3.3-1.2.7-4 .9-6.2.3-2.2.7-5.5 1-7.2.3-1.8.6-3.5.6-3.8.1-.4 2.6-9.8 5-18.5 2.1-7.6 2.1-7.9 3.9-16.5 1.8-9.4 2.3-12.8 3.5-26.5.5-5.6.5-27 .1-33-1-11.4-2.4-21.1-4.1-28-.3-1.1-.7-2.8-.9-3.8-1.1-4.9-6.1-18.2-8.4-22.2-1.4-2.5-3-5.5-3.6-6.7-.6-1.3-1.4-2.3-1.8-2.3-.5 0-.8-.6-.8-1.4 0-.8-.4-1.7-.9-2-.5-.3-.9 3.7-.8 9.2 0 17.1-3.7 35.8-12 60.2-4.6 13.4-10.3 28.3-11.4 29.7-.6.7-.8 1.3-.4 1.3s0 1.1-.9 2.5c-.9 1.3-1.6 2.9-1.6 3.4 0 .6-2.8 6.8-6.2 13.8-3.4 7-6.2 13.2-6.4 13.8-.1.5-1.6 4.6-3.3 9-9.4 24.9-9.9 48.8-1.1 66.6 4.7 9.6 10.6 17.3 17.2 22.4 2.1 1.7 4.4 3.5 5.1 4 .6.6 2.9 2.1 5 3.4 2 1.2 3.8 2.6 3.8 2.9.4 1.8.5 10.8.2 11.4-.2.4-3.6-2.6-7.6-6.5-8.6-8.5-18.2-15.8-33.2-25.2C24.6 1020.8 3 1008 2.3 1008c-.3 0 1 1.9 2.9 4.2 5.2 6.5 12.7 19 20 33.8 2.4 4.7 4.7 8.8 5.1 9.1.5.3.8.8.6 1-.1.2.7 2.2 1.8 4.4 2.9 5.5 17.1 37 19.3 42.6 7 17.5 21 42.1 29 50.9 1.8 1.9 3.9 4.4 4.8 5.5 3.9 4.7 24.2 19.8 24.2 18 0-.3 1.7.3 3.8 1.3 8.5 4.3 28.2 5.5 36.6 2.3 3.3-1.3 2.3-1.8 19.8 10 6.2 4.2 12.4 8.2 13.8 8.9 1.4.7 2.7 1.6 3 1.9.4.5 2.6 1.7 11.5 6.5 1.1.6 2.2 1.3 2.5 1.7.3.3 2.2 1.3 4.3 2.2 2 1 3.7 2 3.7 2.3 0 .9-34.6.2-39.2-.7-2.4-.5-5.4-1.2-6.8-1.4-3.9-.9-9.2-2.6-13.5-4.5-12.3-5.4-18.4-7.8-18.9-7.3-.3.4-.6.1-.6-.5 0-.7-.8-1.2-1.8-1.2s-2.2-.3-2.6-.7c-.4-.5-1.1-.8-1.4-.9-.4 0-3.8-1-7.7-2.2-9.3-2.9-14.7-3.5-29-3.4-12.7 0-20.4.6-29.7 2.2-11.2 2-13.9 2.6-24.9 5.5-12.6 3.3-15.7 4.3-13.9 4.5.8.1 2.6.3 4 .6 1.4.2 5.7.9 9.5 1.5 7.1 1.1 11.1 2 18.7 4.1 2.4.6 5.1 1.3 6 1.5 3 .5 15.1 5.5 21.4 8.9 3.4 1.7 11.9 7 19 11.6 7.1 4.7 14.9 9.5 17.4 10.9 2.5 1.3 4.8 2.8 5.1 3.2.3.5.9.8 1.3.7.4-.1 2.6.7 4.9 1.8 4.2 1.9 7.5 3.3 9 3.7.4.2.8.3 1 .5.1.1.9.3 1.7.5.8.1 4 .8 7 1.4 10 2 13.4 2.3 25 2.3 11.7 0 13.1-.1 21-2.1 12.7-3.3 28.6-11.5 41.4-21.5l5.7-4.4 3.7 1.5c2 .8 6.3 2.8 9.4 4.3 3.1 1.6 5.9 2.6 6.2 2.2.3-.3.6 0 .6.6 0 .7.6 1.2 1.3 1.2.7 0 3.5 1.1 6.3 2.4 6.7 3.2 51.2 20.9 59.9 23.8 3.9 1.3 7.2 2.5 7.5 2.8.3.3 12 4.3 26 8.9 14 4.6 26.2 8.6 27 8.9.8.3 1.8.6 2.3.7.4.2.9.4 1.2.5.6.3 2.2.7 3.5.9.6 0 1 .4 1 .8 0 .5-4.2.6-9.2.3-15.7-.9-33.2-.3-43.8 1.4-1.4.2-4.7.7-7.5 1.1-2.7.4-5.3.9-5.7 1.2-.5.2-1.6.6-2.7.8-1 .2-5.1 1.4-9.2 2.6-4.1 1.2-7.7 2.2-8.1 2.1-.5-.1-.8.2-.8.6 0 .5-.6.9-1.2.9-.7 0-8 3.2-16.2 7.2-8.2 3.9-15.5 7.1-16.3 7.1-.7 0-1.3.5-1.3 1.2 0 .6-.3.9-.6.5-.3-.3-3 .5-6 1.8s-5.7 2.4-5.9 2.4c-.3 0-3.1.8-6.3 1.8-3.1.9-5.9 1.7-6.2 1.8-16.9 3.2-17.8 3.3-22.7 3.4-2.4.1-4.3.5-4.3 1 0 2.4 40.7 16.3 51.5 17.6 1.7.2 5 .7 7.5 1.2 4.9 1 29.4.9 35-.1 4.1-.7 7.5-1.4 11-2.2 1.4-.3 3-.6 3.7-.8.7-.1 1.6-.5 1.9-.9.4-.4 1.5-.7 2.4-.7 1.8 0 12.4-5.2 17.2-8.4 1.5-1 6.7-5.6 11.4-10.2 16.2-15.7 40.1-33 43.8-31.7 3.1 1 24.5 7.1 27.6 7.8.8.2 4.2 1.1 7.5 2 6.6 1.8 21.1 5.5 23.5 6 .8.2 1.5.4 1.5.5 0 .1.9.3 2 .5 1.8.4 12.5 2.9 16.5 4 1.7.4 14.1 3.3 18 4.1 1.4.3 4.3 1 6.5 1.5 2.2.6 4.9 1.1 6 1.3 1.1.2 2 .4 2 .5 0 .4 3.6 1 6.8 1.3 1.5.1 2.7.5 2.7.9 0 2.2-19 11.6-27 13.4-.8.2-4.2 1-7.5 1.8-6.2 1.6-10.3 2.3-19 3.2-2.7.3-6.6.8-8.5 1.1-1.9.3-4.8.7-6.5.9-5.2.6-8.8 1.4-16 3.5-3.8 1.1-7.7 2.2-8.6 2.4-2.9.7-17.3 6.9-20.4 8.8-1.6.9-4.3 2.5-6 3.4-3.5 2-10.9 7.5-11.3 8.6-.2.5-.9.8-1.5.9-.7 0-2.9 2.1-4.9 4.5-2.1 2.5-3.8 4.2-3.8 3.8 0-.4-1.8 1.9-3.9 5.2-2.1 3.2-3.7 6.1-3.6 6.2.2.2 1.9-.1 3.9-.8 1.9-.6 4.7-1.3 6.3-1.6 1.5-.2 4.2-.7 5.8-1.1 8.6-1.9 25.6-2.2 36.5-.7 8.6 1.1 23.3 1.2 29.8 0 1.7-.3 4.4-.8 6-1.1 4.9-.9 6.6-1.3 18.7-4.3 6.6-1.7 14-3.8 16.5-4.7 4.3-1.5 19-9.2 20-10.4.3-.3 2.3-1.9 4.5-3.5 4.6-3.3 15.9-14.7 19.2-19.4 1.3-1.7 3.6-5.8 5.3-9.1 2.4-4.8 3.5-5.9 5-5.5 1.1.2 2.8.6 3.9.8 1 .2 3.6.7 5.7 1 2.2.4 7.5 1.3 11.9 2.1 4.4.7 9.8 1.6 12 1.9 2.2.4 5.1.8 6.5 1.1 3.3.7 9.8 1.6 13.5 2 1.7.1 4.4.5 6 .9 1.7.3 5.3.8 8 1.2 5.5.6 9.6 1.2 13.5 1.9 1.4.2 5.4.7 9 1 3.6.4 7.9.8 9.5 1.1 1.7.2 5.3.6 8 .9 2.8.2 7 .7 9.5 1 2.5.3 7.4.7 11 1 3.6.2 6.5.5 6.5.6 0 .1 5.6.6 9.4.8 1.6.1-1.4 2-9 5.9-9.7 4.9-26.7 15.3-30.5 18.7-.7.5-2.4 1.9-4 3-7.8 5.5-17.7 14.6-35.4 32.5-10.7 10.8-22.4 21.7-26 24.3-3.6 2.6-6.9 5.1-7.5 5.5-3.2 2.4-12.8 7.2-14.7 7.3-2.3 0-2.3 0 .2 1.1 4.7 2 33.9 1.5 44-.7 1.4-.4 3.6-.8 5-1.1 3.5-.7 8.9-2.4 12.8-4 1.8-.8 3.7-1.4 4.3-1.4 1.7 0 16.9-7.9 21.9-11.3 8.1-5.7 16.4-15 25.6-28.7 4.9-7.4 10.1-15.5 11.6-18 4.3-7.5 8-14.2 10.7-19.5 1.4-2.8 2.8-5.2 3.1-5.5.4-.3 1.2-1.9 1.9-3.6 1.1-2.9 1.6-3.1 4.9-2.8 5.2.4 18.4 1.4 26.7 2 3.9.2 10.2.6 14 .9 7.3.5 22.1 1.4 34 2 10.7.6 39.4 1.7 45.2 1.8 2.8.1 5 .4 4.7.8-.2.4-3 2.2-6.2 4-6 3.5-14.5 9.1-17.4 11.7-1 .8-1.8 1.2-1.8.8 0-.4-1 .2-2.2 1.3-1.2 1.2-4 3.3-6.2 4.8-2.3 1.5-4.5 3.4-4.9 4-.4.7-1.2 1.3-1.7 1.3-1.1 0-10.2 8.4-15.9 14.4-11.9 12.9-25.6 25.6-27.6 25.6-.4 0-1.3.6-1.9 1.4-.6.8-3.7 2.8-6.9 4.4-6.6 3.3-6.3 4.1 2.2 6.1 6.6 1.6 23.7 1.5 28.1-.2.8-.3 3.5-1.1 6-1.7 7.1-1.9 24-10.3 30.2-15.2 7.7-6 12.7-12.4 24.3-30.8 5.3-8.5 10.5-16.6 11.4-18 .9-1.4 2.3-3.9 3.1-5.5.8-1.7 1.9-3.5 2.3-4 .4-.6 1.3-1.8 2-2.8 1.2-1.8 9.3-2.7 11.5-1.3.6.3 2.2.2 3.6-.4 1.4-.5 2.7-.6 3-.2.2.4 2.8.6 5.8.5 2.9-.1 12.1-.5 20.3-.7l15-.4v5.3c.1 6.4 1.4 9.2 6.1 12.5l3.6 2.4h71.8l71.9-.1 3.5-2.4c4.9-3.4 6.1-6.2 6.5-16.2.1-1.6 1.1-1.7 12.9-1.1 7 .3 13.6.5 14.7.4 1.1-.1 2.5-.1 3-.1 7.3.2 19.2.2 19.8.1 5.1-1.3 7.9.5 12.2 7.7 2.2 3.7 5 8.3 6.2 10.2 1.3 2 2.6 4.3 3 5.1.4.8 1.3 2.1 2 2.8.7.7 1.3 2 1.3 2.8 0 .8.3 1.4.8 1.4.4 0 1.8 2 3.2 4.5 1.4 2.5 2.8 4.5 3.2 4.5.5 0 .8.5.8 1.1 0 1.6 8.2 12.9 12.3 17 4.1 4.2 11.3 9.9 12.4 9.9.5 0 1.5.6 2.2 1.2.6.7 1.5 1.3 1.9 1.4.4 0 3.7 1.5 7.5 3.3 7.2 3.3 13.8 5.8 17.8 6.5 1.3.3 2.4.5 2.4.6 0 .5 6.9 1.1 12.5 1.2 7 .1 12.4-.6 18.2-2.4 4.3-1.3 4.8-2.4 1.6-3.4-2.7-.8-15.1-8.8-19.2-12.4-3.4-2.9-13.3-12.7-22.1-21.9-5.9-6.3-16.7-15.5-23.5-20.1-1.9-1.3-3.7-2.7-4-3.1-.3-.3-1.5-1.2-2.8-1.8-1.3-.7-3.2-2-4.3-2.9-1.1-.9-3.5-2.6-5.3-3.7-1.9-1.1-5.9-3.5-9-5.3-3.1-1.9-5.6-3.7-5.6-4 0-.4 2.6-.8 5.8-.8 13.8-.3 50.8-2 64.2-3 4.7-.3 11.7-.7 15.5-.9 3.9-.2 9.7-.6 13-.9 3.3-.4 10.1-.8 15-1.2 5-.3 10-.7 11.2-.9 2.7-.4 3 0 8.3 10 4.7 9.1 4.1 8 11.1 20 6.3 10.8 15.6 24.8 21.6 32.8 3.8 4.9 6.8 7.7 18 16.7.7.6 1.6 1 2.2 1 .5 0 1.1.3 1.3.7 1.2 2.8 30 13.9 38.3 14.9 1.1.1 4.5.6 7.5 1 7 1.1 31.6 1.1 35.5 0l3-.8-4-1.7c-12.6-5.1-22.4-12.8-45-35.5-22.1-22.3-25.1-25-36.5-33.4-4.7-3.5-9.2-6.9-10-7.5-3.5-2.8-15.2-9.5-25-14.4-9.6-4.8-10.2-5.3-7-5.4 5.6-.2 11.2-.6 15.5-1.2 2.2-.4 6.9-.9 10.5-1.2 6.4-.5 10.3-1 19-2.1 2.5-.3 6.3-.7 8.5-.9 4.3-.4 12.9-1.5 15.6-2 .9-.2 4-.6 7-1 3-.3 6.8-.9 8.4-1.1 1.7-.3 4.1-.7 5.5-.9 5.4-.7 11.6-1.6 14.5-2.2 1.7-.3 4.1-.6 5.5-.8 2.2-.3 16.9-2.8 23-4 1.3-.3 4.2-.7 6.4-1.1 2.2-.3 4.3-.7 4.7-.9.3-.2 1.8 1.9 3.3 4.7 5.2 9.5 7.7 13 15 20.2 7.9 7.9 9.6 9.3 15.8 13.3 2.4 1.5 4.5 3 4.8 3.3 1 1.1 13.8 6.9 16.5 7.5.6.2 5.5 1.5 11 3 10.6 2.8 15.5 4.1 16.8 4.3 2.1.3 7.5 1.3 10.2 1.8 6.2 1.1 24.3 1.1 32-.1 7.6-1.1 24.2-1.2 29.5-.2 1.4.3 4.3.8 6.5 1.2 2.2.4 6.4 1.4 9.3 2.2 3 .8 5.5 1.3 5.7 1.1.9-.9-6.2-9.9-12.8-16.3-16.3-15.7-34.8-24.6-64.2-30.6-2.7-.6-7.2-1.2-10-1.5-2.7-.3-6.3-.6-8-.9-1.6-.2-5.2-.6-8-1-13.5-1.7-38.1-10.1-40.7-14-.4-.5-.8-.7-.8-.3 0 .4-.9 0-2-.9-2.4-2.1-1.7-2.9 3.5-3.7 2.2-.3 7.7-1.4 12.2-2.5 4.5-1.1 9.2-2.2 10.5-2.5 4.7-1 7-1.5 8.6-2 .9-.3 3.2-.8 5.1-1.1 1.9-.3 3.7-.8 4.1-1 .3-.2 1.7-.6 3.1-.9 1.3-.3 4.2-1 6.4-1.6 2.2-.6 5.1-1.3 6.4-1.6 3.9-.8 13.2-3.2 19.6-4.9 3.3-1 6.8-1.9 7.8-2.1 2.8-.7 4.8-1.2 14.2-3.9 20-5.9 20.3-5.9 25.4-1.7.9.7 5.2 3.9 9.6 7 4.4 3.1 8.2 5.9 8.5 6.2.3.3 3.4 3 7 6s9.2 8.1 12.5 11.4c5.8 5.7 15 12.6 16.9 12.6.5 0 1.7.6 2.5 1.3 1.7 1.4 15.4 5.5 20.6 6.2 1.7.2 3 .4 3 .5 0 1.6 37.8 1.8 39.8.2.8-.7 1.6-.9 1.9-.6 2 2 42-10.6 54.8-17.3 2.4-1.2 2.3-1.3-2-1.4-2.5-.1-5-.1-5.5 0-1 .1-12.2-1.9-19-3.4-9.6-2.1-25.7-8.3-43.7-16.9-6.3-3-14.1-6.4-17.3-7.6-3.3-1.2-6.9-2.5-8-3-1.9-.9-13.1-3.7-18.5-4.6-1.4-.2-3.5-.6-4.6-.9-7.5-1.7-30.4-2.4-47.6-1.5-5.3.3-9.4.2-9.1-.3.2-.4 1.2-.7 2.2-.7 1 0 2.1-.3 2.5-.7.3-.4 1.4-.8 2.4-1 .9-.1 5.8-1.6 10.7-3.3 5-1.7 9.7-3.2 10.6-3.4 2.6-.7 30.9-10.4 35.9-12.3.8-.4 1.8-.7 2.2-.7.3-.1 1-.4 1.4-.8.4-.5 1.3-.8 2-.8s2.5-.5 4.1-1.2c1.5-.6 3-1.2 3.3-1.3.3-.1 1.4-.5 2.5-1 11.1-4.5 21.8-8.5 23-8.5.8 0 1.5-.5 1.5-1 0-.6.5-1 1.2-1 1.4 0 13.9-4.9 15.3-6 .6-.4 2.1-1.1 3.5-1.5 2.7-.8 8.4-3.3 22.9-10.1 9.7-4.6 10.7-4.9 11.3-3.7.9 2.1 24.8 18 24.8 16.6 0-.5.4-.3.8.2 1.2 1.7 12.5 6.4 20.4 8.5 6.1 1.6 10 1.8 23.3 1.6 8.8-.2 17.2-.6 18.8-1 1.5-.3 3.7-.8 5-1.1 13.1-2.7 26.9-9.3 43.9-21.2 2.6-1.8 5-3.3 5.4-3.3.3 0 2-1.1 3.7-2.4 6.6-4.9 30.7-16.6 30.7-14.9 0 .3.7 0 1.5-.7s1.5-.9 1.5-.5.7.2 1.5-.5c.9-.7 1.8-1 2.2-.7.3.4 1.3.2 2.2-.2.9-.5 3-1.1 4.6-1.4 1.7-.3 4.1-.8 5.5-1.1 6.3-1.4 7.8-1.7 13-2.3 7.7-.8 7.9-.8 8.5-1.5.4-.4-5.2-2.4-9.5-3.4-.3 0-1.2-.3-2-.7-1.4-.5-2.9-.8-9.5-2.2-16.9-3.4-24-4.7-29-5.1-7.9-.7-28.6-.7-35.1 0-4.6.5-20.5 5-22.9 6.4-.5.4-1.6.7-2.3.8-.8.2-3 1-4.9 1.9-11.2 5.3-25.7 10.7-32.3 12-3.8.8-42 1.8-42 1.1 0-.2 5.1-3.2 11.3-6.6 12.3-6.9 30-18 30.5-19.2.2-.5 1-.8 1.8-.8s1.4-.5 1.4-1c0-.6.6-1 1.4-1 .8 0 1.6-.4 1.8-.8.2-.4 1.7-1.8 3.4-2.9 2.6-1.8 3.7-2.1 6.5-1.3 11 2.9 20.2 2.9 30.8 0 4.4-1.2 17.1-6.8 18.1-7.9.3-.4 1.8-1.5 3.3-2.4 9.1-5.8 24.2-23.6 32.4-38.2 5.7-10.2 14.6-29.2 14.6-31.3 0-.6.4-1.2.9-1.2.4 0 .8-.6.8-1.3 0-.7.9-3.2 2-5.5 3-6.1 4.3-9.6 4.2-10.5-.1-.4.3-.7.8-.7.6 0 1-.4 1-1 0-.5 1.9-4.9 4.2-9.7 2.2-4.9 4.2-9 4.3-9.3.2-.9 9.2-18.6 13.1-25.7 4.8-8.9 8-14 13.2-21.3 2.3-3.3 4.2-6.2 4.2-6.5 0-.3-1.8.6-4 2s-4.2 2.5-4.5 2.5c-.3 0-1.8.8-3.3 1.9-1.5 1-9.9 6.2-18.7 11.6-8.8 5.3-17.7 11-19.7 12.6-2 1.6-3.9 2.9-4.2 2.9-.8 0-7.1 5.7-14.8 13.2-3.7 3.8-6.9 6.8-7.1 6.8-.2 0-.3-2.6-.2-5.8.1-5.9.9-8.2 2.6-8.2.6 0 1.7-.6 2.5-1.3.7-.6 4-3.2 7.1-5.6 3.2-2.4 7.6-6.5 9.8-9.1 3.7-4.6 11.9-18 10.9-18-.2 0 .2-1.2.9-2.8 3.9-7.6 5-29.1 2.3-41.2-.4-1.4-.8-3.6-1.1-5-1.2-6.7-7.2-22-14.9-38.3-3.1-6.5-5.6-12-5.6-12.2 0-.2-.9-2.4-2-4.9-1.1-2.6-1.9-4.8-1.9-5.1-.1-.3-.8-1.9-1.6-3.5-.9-1.7-1.2-3-.8-3 .5 0 .3-.4-.3-.8-.5-.4-2.3-4.3-3.8-8.7-1.5-4.4-3-8.7-3.4-9.5-.3-.8-.6-1.7-.7-2-.1-.5-2.4-8-4.6-14.7-.5-1.8-1.2-4.2-1.4-5.3-.2-1.2-.7-3-1-4-.7-2-1-4-2.5-12-2-11.4-2.4-15.8-2.3-24.8 0-5-.1-9.2-.3-9.2-.2 0-1.9 2.7-7.3 12-1.8 3-6.6 15-7.6 19-.2.8-.4 1.5-.5 1.5-.1 0-.4 1.1-.6 2.5-.3 1.4-.9 4.1-1.4 6-1 3.9-2.2 11.2-2.4 15-.1 1.4-.5 3-.8 3.5-.7 1.2-.8 43.7-.1 44.8.3.5.7 3.2.8 5.9.4 5.8 2.1 15.7 4.2 23.8.7 3 1.5 6.2 1.8 7 .2.8 1.3 4.9 2.4 9 1.1 4.1 2.2 8.6 2.5 10 .3 1.4.7 3.6 1 4.9.3 1.3.8 5.6 1.1 9.5l.6 7.1-2.6-5c-6.8-13-22.6-34.7-36.7-50.8-2.1-2.3-3.8-4.7-3.8-5.3 0-.5 1.1-3.3 2.5-6.1 1.3-2.8 2.7-6.4 3.1-8 .4-1.5.9-3.3 1.3-3.8.6-1.2 1-2.6 1.6-7.5.2-1.9.4-3.5.5-3.5 1 0 1.3-23.2.5-29-.3-2.2-.8-5.4-1-7-.2-1.7-.4-3-.5-3-.1 0-.4-1.1-.6-2.5-.3-1.4-.9-4.1-1.4-6-.5-1.9-1-3.8-1-4.2 0-.4-.8-2.7-1.6-5-.9-2.4-1.7-4.8-1.8-5.3-.2-.6-.9-2.4-1.5-4-.7-1.7-1.4-3.5-1.5-4-.9-3.6-12.7-27.8-13.8-28.3-.5-.2-.8-.8-.8-1.4 0-.6-2.1-4.4-4.7-8.6-2.7-4.2-5.2-8.4-5.8-9.3-.5-1-3.2-5.1-6-9.1-2.7-4-5.3-8.1-5.7-9.1-.4-.9-1.2-1.7-1.8-1.7-.6 0-.8-.5-.5-1 .3-.6.1-1-.4-1-.6 0-1.1-.4-1.1-.9s-1.5-3.2-3.2-5.9c-9-13.9-24.8-43.5-24.8-46.5 0-.7-.4-1.7-.9-2.2-1.3-1.5-6.1-17.4-7-23l-.7-5-.8 5.5c-.5 3-1 6.2-1.1 7-.2.8-.6 4.4-1 8-.4 3.6-.9 7.3-1.1 8.3-1.8 9.6-2.5 56-1 68.2.5 3.8 1 8.4 1.1 10.1.1 1.7.4 3.5.7 4 .5.8 2.1 8.6 1.9 9.1-.2.7 4.3 12.3 6.1 15.8 1.1 2.2 4.5 7.9 7.4 12.6 3 4.7 5.4 9.1 5.4 9.7 0 .6.6 1.7 1.3 2.4 2.4 2.6 11.3 24.9 12.2 30.7.2 1.4.6 3.7 1 5.1.7 3.2 1.5 19 .9 19-.3 0-3.1-1.7-6.2-3.8-3.1-2.1-8.4-5.4-11.7-7.3-3.3-1.9-6.8-3.9-7.7-4.4-4.8-2.9-17.5-9.6-26.3-14-5.5-2.8-10.3-5.4-10.6-5.8-.3-.5-.9-.8-1.3-.8-.6.1-5.1-1.9-19.6-8.7-3-1.4-5.7-2.6-6-2.6-.5-.1-9.1-3.9-20.7-9.2-2.9-1.3-5.3-2.6-5.3-2.9 0-.3.8-.2 1.8.3 1.5.9 10.6 3.2 14.2 3.8.8.1 2.6.5 4 .8 1.4.3 5.2 1.1 8.5 1.7 3.3.5 7.1 1.2 8.5 1.5 1.4.2 4.8.7 7.5 1 2.8.3 5.8.7 6.7 1 1.8.5 1.8.9.3-12.1-.4-3.3-.8-6.2-1-6.6-.2-.3-.7-2.1-1-4-1-6-5-20.5-7.3-26.9-.9-2.5-1.7-4.7-1.8-5 0-.3-.4-1.3-.8-2.2-.4-.9-.9-2.2-1-3-.8-3.8-13.4-29.4-15.8-32.2-1-1.1-1.8-2.6-1.8-3.3 0-.7-.3-1.3-.8-1.3-.4 0-1.3-1.2-2-2.8-.6-1.5-2.1-3.8-3.2-5.2-1.1-1.4-4.6-5.9-7.7-10-6.4-8.3-20.6-23-29.8-30.7-9.8-8.2-48.5-35.3-50.4-35.3-.6 0-1.1-.5-1.1-1 0-.6-.7-1-1.5-1s-1.5-.4-1.5-.9-.8-1.1-1.7-1.5c-2.3-.7-5.6-2.8-6.5-4.1-.4-.6-.8-.6-.8-.2 0 .4-1.9-.5-4.2-2-4.7-3.1-21.8-11.6-25.8-12.8-1.4-.4-2.9-1.1-3.5-1.5-.8-.6-9.2-3.4-14-4.6-3.4-.9-17.7-3.5-21.4-4-9.3-1.1-12.1-1.3-25.6-1.9-7.7-.3-14.6-.8-15.2-1-.7-.3-1.3-.2-1.3 0zm-514.6 713.2c.7 1.6-.8 1.7-3.3.1-2.1-1.3-5.1-.5-5.1 1.5 0 .7 1.2 2 2.8 2.8 5 2.5 6.7 4.3 6.4 6.6-.7 4.9-7.9 6.4-10.9 2.4-1.8-2.5.7-3.3 2.7-.9 1.4 1.8 2 1.9 3.9.9 3.1-1.7 2.3-4.3-2.1-6.3-6-2.8-6.2-9.1-.5-10 2.5-.4 5.4 1 6.1 2.9zm-41.1-1.3c.9.6 1.7 1.6 1.7 2.3 0 .7.5 1.3 1 1.3.6 0 1 1.8 1 4 0 3.1-.6 4.7-2.6 6.5-1.5 1.4-3.4 2.6-4.3 2.6-1.9.2-7.4.2-8.1 0-.3-.1-.6-4.2-.6-9.2v-9l5.1.2c2.7.2 5.8.7 6.8 1.3zm22.7-.3c0 .5-1.8.9-4.1.9-3.8 0-4 .1-3.7 2.7.3 2.8.5 2.9 6.1 3.2 1 .1 1.5.6 1.2 1.1-.4.6-1.2 1-1.8.9-4.5-.5-5.5.1-5.4 3.3.2 2.8.6 3.3 2.7 3.4 4.5.2 5.3.4 4.6 1.1-1 1.1-8.6 1.2-9.2.2-.4-.7-.7-11.7-.5-16.6.1-1.5 10.1-1.6 10.1-.2zm38-.1c0 .5-1.5 1-3.4 1-3.9 0-5 1.1-4.1 4.1.4 1.3 1.4 2 2.8 1.8 3.5-.2 4.7 0 4.7 1.1 0 .5-.3.9-.7.9-.5-.1-2.2-.1-4 0-2.9.1-3.1.3-2.9 3.3.3 3.1.5 3.3 3.9 3.1 2.4-.1 3.7.3 3.7 1.1 0 1-4.8 1.4-9.2.7-.3-.1-.6-4.1-.6-8.9l-.1-8.9 5-.2c2.8-.1 4.9.3 4.9.9zm17.2.7c2.2 2 2.4 6.1.3 6.9-2.1.9-1.9 1.7 1.4 5.5 2 2.2 2.6 3.6 1.9 4-1.1.7-6.8-5.4-6.8-7.2 0-.5-.7-.6-1.5-.3-.9.4-1.5 1.9-1.5 4s-.5 3.4-1.2 3.4c-.9 0-1.2-1.7-1.1-5.7.1-3.2.2-7.3.2-9.1.1-2.9.4-3.2 3.3-3.2 1.7 0 4 .7 5 1.7zm14.3 4.8c1.6 3.6 3.2 6.5 3.7 6.5.4 0 .7-.3.6-.8-.4-1.3 5.1-12.2 6.2-12.2.9 0-1.9 7.1-6.1 15.9-1.6 3.4-1.7 3.4-2.4 1-.4-1.3-2.1-5.2-3.6-8.6-3-6.4-3.5-8.3-2-8.3.5 0 2.1 2.9 3.6 6.5zm29-5.5c.4.6-1 1-3.4 1-3.8 0-4.1.2-4.1 2.9 0 2.5.3 2.8 3.2 2.7 1.8 0 3.3.5 3.6 1.3.3.9-.5 1.2-2.9.9-3.2-.3-3.4-.1-3.7 3.3-.3 3.5-.2 3.5 3.3 3.4 2-.1 3.5.3 3.5.9 0 1.4-9 1.6-9.1.2-.4-3.1-.5-16.2-.1-16.9.5-1.1 9-.9 9.7.3z"/><path d="M935.5 1344c0 3.9.4 7 1 7.1 3.1.3 7-.5 8.3-1.7.8-.8 1.5-3 1.7-4.9.4-4.2-3-7.5-7.9-7.5h-3.1v7zM1017 1340.4c0 3.4 0 3.5 3 2.5 1.7-.6 3-1.6 3-2.3 0-1.8-2.1-3.6-4.2-3.6-1.4 0-1.8.8-1.8 3.4zM606.9 806.4c-.2.2-4.7.6-9.9 1-5.2.3-10.6.8-12 1-3.5.6-11.8 1.7-16 2.2-4.9.6-9.9 1.3-12.4 1.9-1.2.3-3.3.7-4.9.9-1.5.3-3.5.7-4.5 1-.9.3-3.5.8-5.7 1.1-2.2.4-4.7.8-5.5 1-.8.2-1.9.4-2.3.4-1.2.1 7 14.2 9.8 16.6.6.5 2.1 2.7 3.4 4.7 1.2 2.1 2.7 3.8 3.2 3.8s.9.6.9 1.4c0 .8.3 1.6.8 1.8.4.1 2.7 2.8 5.2 5.8s6.3 7.5 8.5 9.9c6.6 7.5 39.6 40.2 47 46.6 3.8 3.3 7.6 6.7 8.5 7.5 5.7 5.5 31.5 18.9 49 25.5 2.5.9 5.6 2.2 7 2.8 1.4.5 3 1.1 3.5 1.3 1.3.4 25.6 8.5 27.5 9.2 1.7.6 2.3.7 6 1.6 1.4.3 6.1 1.5 10.5 2.7 4.4 1.1 8.7 2.1 9.5 2.1.8 0 3.6.4 6.2.9 7.6 1.4 16.9 2.3 35.8 3.5 19.3 1.2 18.3 1.5 17.6-5.1-.5-5.1-3.7-17.6-5.6-22-.5-1.1-2.4-5.6-4.4-10-1.9-4.5-5.3-11.4-7.6-15.4-2.2-4.1-4-7.6-4-7.8 0-.2-.8-1.6-1.9-3.1-1-1.5-4.4-6.6-7.5-11.4-3.1-4.8-6.3-9.3-7-10-.7-.7-1.7-2-2.2-3-3.1-5.6-19.4-22.2-30.4-31-4.1-3.3-8.3-6.6-9.3-7.4-.9-.8-2-1.4-2.3-1.4-.3 0-2.5-1.3-4.8-2.9-5.2-3.6-24.3-13.6-31.1-16.3-2.7-1.1-6.3-2.5-8-3.3-6-2.6-12-4.8-14-5.1-1.1-.1-2-.3-2-.4 0-.1-.7-.3-1.5-.5s-2.8-.6-4.5-1c-3.1-.7-37.9-1.7-38.6-1.1zM1352.5 808c-4.4.9-12.3 3.4-17.5 5.4-13.8 5.5-38.1 17.5-40 19.7-.3.3-2.5 1.8-5 3.2-9.7 5.7-27.4 21.2-37 32.6-2.5 3-4.9 5.9-5.5 6.5-3.3 3.8-13.6 19.2-19.1 28.6-4.5 7.7-14.4 27.2-14.4 28.4 0 .3-.5 1.7-1.2 3.3-.6 1.5-1.2 3-1.3 3.3-.1.3-1.2 3.7-2.4 7.7-1.2 3.9-2.3 9.8-2.4 13l-.2 5.8 4-.1c4.5-.1 22.9-1.3 29-1.9 2.2-.2 6.7-.6 10-.9 3.3-.3 7.1-.8 8.5-1.1 1.4-.3 3.9-.7 5.5-1 1.7-.2 4.1-.7 5.5-.9 1.4-.3 3.4-.8 4.5-1 1.1-.2 3.8-.9 6-1.5s4.9-1.2 6-1.4c1.1-.2 2.7-.6 3.5-1 .8-.3 6.9-2.2 13.5-4.3 20-6.2 60.2-23 61.3-25.7.2-.4.9-.7 1.5-.7 2.2 0 15.2-9.7 24.2-18.2 14.3-13.3 28.5-26.9 28.5-27.2 0-.2 2.7-3.2 6.1-6.7 11-11.5 13.5-14.3 18-19.9 2.4-3 4.6-5.7 4.9-6 5.8-5.8 21.1-28.9 19.3-29.1-.4 0-1.5-.2-2.3-.4-.8-.2-3.1-.6-5-.9-1.9-.3-5.5-1-8-1.5-8.4-1.7-16.5-3.1-20.5-3.5-2.2-.3-4-.5-4-.6 0-.1-1.8-.3-4-.5s-5.8-.6-8-1c-7-1.2-15.5-1.7-35-1.9-14.6-.2-20.9.1-27 1.4zM396.8 838.4c-.1.2-8.8.6-19.1 1-10.4.3-19.3.8-19.8 1.1-.5.4-.9.1-.9-.6 0-.8-.4-.8-1.2-.2-.7.5-3.5 1.1-6.3 1.2-2.7.2-6.3.4-8 .4-3.3.2-4.8 1.6-3.6 3.2.4.5 1.8 3.7 3.1 7 3.4 8.7 14 30.7 15.6 32.3.8.7 1.4 1.9 1.4 2.5 0 .7 1.6 3.6 3.5 6.5 2 2.8 3.2 5.2 2.8 5.2-.5 0-.3.4.2.8.6.4 2.8 3.5 5 6.9 2.2 3.5 4.3 6.3 4.8 6.3.4 0 .7.4.7 1 0 1 7.8 11.7 11.3 15.5 1 1.1 2.8 3.3 4 4.8 2.4 3.1 20.3 21.3 23.3 23.7 12.7 10.2 17.5 13.8 27.2 20.4 6.2 4.2 11.7 7.6 12.3 7.6.5 0 .9.4.9 1 0 .5.7 1 1.5 1s1.5.4 1.5.9.8 1.1 1.8 1.5c.9.3 4 1.9 6.7 3.5 15.9 9.5 40.3 20.3 49.1 21.7 2 .3 4.6.8 5.8 1 1.1.3 5 .7 8.6 1 9.5.7 20.2 3.9 30.7 9 8.8 4.3 11.7 4.9 10.8 2.1-.2-.7-.6-5.3-.9-10.2-.5-8.6-.8-11.5-2-19.5-.9-5.7-2.7-14.4-3.3-16-.3-.8-.8-2.5-1-3.8-1.8-10.9-19.5-49.3-23.5-51-.5-.2-.8-.8-.8-1.3 0-3-18.1-22.8-31.8-34.9-3.4-3-7.9-7-10-8.9-2-1.8-6.4-5.6-9.6-8.3-3.3-2.8-6.5-5.5-7.1-6.1-.7-.7-2.7-2.3-4.5-3.7-1.8-1.4-3.8-3-4.4-3.5-4.6-4.2-24.6-15.3-24.6-13.7 0 .4-.4.2-.8-.4-.8-1.1-10.2-4-16.6-5-2.1-.3-4.8-.8-6-1-1.1-.3-7-.7-13.1-1-6-.3-11.5-.7-12.2-.9-.6-.2-1.3-.2-1.5-.1zM1600.8 838.5c-.1.1-5.2.5-11.3.9-6 .3-12.6.8-14.5 1.1-1.9.4-4.4.8-5.5 1-7.1 1.1-25.6 8-26.3 9.7-.2.4-.9.8-1.6.8-.7 0-3 1.3-5.2 3-2.1 1.6-4.3 3-4.7 3-.4 0-1.9 1.1-3.3 2.5s-2.8 2.5-3.2 2.5c-.4 0-2.6 1.7-4.9 3.8-2.2 2-6.5 5.7-9.4 8.2-2.9 2.5-6.2 5.4-7.5 6.5-1.2 1.1-5.5 4.9-9.5 8.5-22.2 19.5-33.9 34-44.5 55.1-1.9 3.7-3.4 7.2-3.4 7.8 0 .6-.5 1.1-1 1.1-.6 0-.9.3-.8.7 0 .5-.2 1.5-.5 2.3-1.8 4-8.7 26.4-8.7 28 0 1-.5 2.2-1 2.5-.6.4-.8 1-.5 1.4.2.5-.2 4.6-1.1 9.2-.8 4.6-1.7 13.9-2 20.6l-.6 12.2 9.5-4.8c10.7-5.4 21.9-8.7 32.2-9.5 3.9-.3 8.1-.8 9.5-1.1 1.4-.3 3.9-.8 5.5-1.1 3.7-.6 9.5-2.6 15.7-5.2 2.5-1.1 4.9-1.8 5.2-1.5.3.4.6.2.6-.4 0-.5 1.8-1.6 4-2.3 2.2-.7 4-1.7 4-2.2 0-.4.6-.8 1.4-.8 2.6 0 39.4-21.8 45.1-26.7.6-.5 3.3-2.4 6-4.3 2.8-1.9 5.2-3.7 5.3-4.2.2-.4.8-.8 1.3-.8s1.7-.8 2.7-1.8c1-.9 3.7-3.3 6.1-5.2 11-8.8 30.8-30.4 39.1-42.5 1.8-2.8 3.6-5.2 4-5.5.5-.4 3.5-5.1 10.9-17 4.9-7.9 20.1-38.1 20.1-40 0-.6.4-1.8.9-2.8 2.9-5.2 3.9-8.2 3-8.8-.6-.3-3.1-.8-5.7-1-15.6-1.2-20.3-1.5-35.7-2-9.3-.3-17.5-.7-18.2-.9-.6-.2-1.3-.2-1.5 0zM199.6 911.8c-.5.4 5.2 12.1 6.5 13.2 1 .9 17.5 35.1 24.3 50.2 7.4 16.6 15.6 32.8 17.6 34.8.3.3 2.2 3 4.2 6 2.1 3 4.8 6.7 6 8.2 1.3 1.5 3.4 4.1 4.6 5.7 4.8 6.1 14.4 15.1 16.2 15.1.6 0 1 .3 1 .7 0 .5 1 1.3 2.3 1.9 1.2.6 4 2 6.2 3.2 3.7 1.9 7.6 3.4 8.3 3.2.1 0 1.5.6 3 1.3 2.7 1.4 12.4 4.2 17.2 5.1 1.4.2 5.2.9 8.5 1.5s9.2 1.4 13 1.7c8.5.8 43 .8 46.5.1 1.4-.3 4.5-.6 6.9-.6 5.2-.1 4.6-1.1-2.4-3.5-8.1-2.9-16.4-6.8-27.5-12.9-5.4-2.9-16.9-11.9-22.7-17.6-5.8-5.6-16.3-19.1-16.3-20.9 0-.5-.4-1.2-.9-1.4-1-.3-13.1-24.8-13.1-26.5 0-.5-.6-2.3-1.4-3.9-1.3-2.5-3.6-7.8-4.1-9.4-3.5-10.5-11.1-23.3-18.2-30.5-5.9-6.1-9.3-8.6-17.5-12.5-3.5-1.7-7.1-3.5-8-4-3.1-1.7-23.7-6.6-31.8-7.6-7.1-.8-27.8-1.3-28.4-.6zM1776.6 911.7c-.2.2-4.5 1-11.1 1.8-4.7.7-18.3 3.9-21.5 5.2-.8.3-2.1.7-2.8.9-2.3.5-17.3 8.5-19.9 10.7-9.4 7.8-15.7 16.2-20.8 27.3-2.5 5.5-4.6 10.2-5 11.4-.4 1.3-2.6 6.7-3.5 8.5-.5 1.1-2.5 5.7-4.4 10.3-1.9 4.6-5.3 11.5-7.6 15.4-2.2 3.8-4 7.4-4 7.8 0 .5-.6 1.3-1.3 1.7-.6.4-2.4 2.6-4 4.9-3 4.5-15.4 17-20.7 21-10.6 7.9-24.3 15.2-37 19.9-9.5 3.5-10.6 4.5-4.9 4.6 2.4.1 5.8.3 7.4.5 5.1.8 38.6.7 46-.1 9.7-1 12-1.3 12.3-1.5.1-.1 1-.3 2-.4 4.6-.5 11.3-2 17.2-3.9 3.6-1.1 6.7-2.1 7-2.2 8.4-1.8 25-11.9 31.8-19.5 15.8-17.4 25.5-33 37.2-59.5 7.3-16.6 20.1-43 26-53.5 7.1-12.8 7.7-11.7-6.2-11.6-6.6.1-12.1.2-12.2.3z"/></svg>
