<svg width="270" height="226" viewBox="0 0 136 114" xmlns="http://www.w3.org/2000/svg">
	<style>
		.svg-custom-border-white {
			fill: none;
			stroke: #fff;
			stroke-width: 1.1786;
			stroke-linecap: round;
			stroke-linejoin: round;
			stroke-miterlimit: 10;
		}
	</style>
	<path class="svg-custom-border-white" d="m54.5 41.7c2.6-2.2 5.4-4.1 8.3-5.8"></path>
	<path class="svg-custom-border-white" d="m54.5 50.8c2.7-1.9 5.6-3.6 8.6-5.1"></path>
	<path class="svg-custom-border-white" d="m64.6 55c3-1.5 5.9-3.4 8.6-5.4"></path>
	<path class="svg-custom-border-white" d="m74 37.8c2.6-1.2 5-2.7 7.2-4.5"></path>
	<path class="svg-custom-border-white" d="m72.8 27.7c2.4-1.3 4.7-2.8 6.7-4.6"></path>
	<path class="svg-custom-border-white" d="m54.8 26.5c2.3-1.6 4.7-3.1 7-4.7"></path>
	<path class="svg-custom-border-white" d="m37.7 37.8c2.1-2.2 4.7-3.9 7.5-5"></path>
	<path class="svg-custom-border-white" d="m40.4 45.2c2.1-1.5 4.3-3 6.4-4.5"></path>
	<path class="svg-custom-border-white" d="m40.4 25.3c2-2.1 4.4-3.8 7.1-5"></path>
	<path class="svg-custom-border-white" d="m58.4 14.5c1.4-1 3-1.8 4.6-2.4"></path>
	<path class="svg-custom-border-white" d="m67.4 5.5c2.3-1.9 4.9-3.4 7.7-4.5"></path>
	<path class="svg-custom-border-white" d="m69.4 13.3c2-1.1 4.1-2.2 6.1-3.4"></path>
	<path class="svg-custom-border-white" d="m74.4 17.9c2.2-1.2 4.4-2.4 6.6-3.5"></path>
	<path class="svg-custom-border-white" d="m87.2 20.6c3.5-2 7-3.9 10.6-5.7"></path>
	<path class="svg-custom-border-white" d="m91.2 30.4c1.9-1 3.9-2.1 5.8-3.1"></path>
	<path class="svg-custom-border-white" d="m98.2 36.3 5.4-3.6"></path>
	<path class="svg-custom-border-white" d="m87.2 39.4c2.2-1.6 4.6-3 7.1-4.2"></path>
	<path class="svg-custom-border-white" d="m85.3 46.8c3-1.5 5.9-3.2 8.6-5.1"></path>
	<path class="svg-custom-border-white" d="m89.6 55.4c2.5-1.1 4.8-2.4 7-3.9"></path>
	<path class="svg-custom-border-white" d="m105.2 40.9c1.9-1.2 3.7-2.5 5.6-3.7"></path>
	<path class="svg-custom-border-white" d="m116.2 41 6.3-4.2"></path>
	<path class="svg-custom-border-white" d="m107.2 56.2c2.9-1.8 5.7-3.6 8.6-5.4"></path>
	<path class="svg-custom-border-white" d="m88.8 73.8c2.4-1.4 4.7-2.8 7.1-4.2"></path>
	<path class="svg-custom-border-white" d="m78.3 72.2c2.2-1.6 4.4-3.1 6.6-4.7"></path>
	<path class="svg-custom-border-white" d="m67 69.4c2.2-1.5 4.5-3.1 6.7-4.6"></path>
	<path class="svg-custom-border-white" d="m76.3 59.3c1.6-1.8 3.5-3.4 5.5-4.6"></path>
	<path class="svg-custom-border-white" d="m40.4 67.9c2.7-2 5.6-3.7 8.6-5"></path>
	<path class="svg-custom-border-white" d="m47.8 73.7 7.8-5.1"></path>
	<path class="svg-custom-border-white" d="m20.6 64.1c3.1-1.9 6.3-3.9 9.4-5.8"></path>
	<path class="svg-custom-border-white" d="m31.8 62.7c2.9-1.7 5.8-3.3 8.8-4.8"></path>
	<path class="svg-custom-border-white" d="m6 57.6c2.2-1.5 4.5-3 6.7-4.5"></path>
	<path class="svg-custom-border-white" d="m1.3 48.7c3.4-2.5 6.9-5.1 10.3-7.6"></path>
	<path class="svg-custom-border-white" d="m17.9 40.3 5.4-3.6"></path>
	<path class="svg-custom-border-white" d="m20.5 51.5c2.9-2.1 5.9-4 9.1-5.7"></path>
	<path class="svg-custom-border-white" d="m27.6 32c1-0.9 2.2-1.6 3.5-2"></path>
	<path class="svg-custom-border-white" d="m21.7 29.7c1.1-1.1 2.4-1.9 3.9-2.4"></path>
	<path class="svg-custom-border-white" d="m31.9 19.5c1.7-1.5 3.5-2.8 5.5-3.9"></path>
	<path class="svg-custom-border-white" d="m12.3 26.9c2.2-1.4 4.4-2.8 6.6-4.3"></path>
	<path class="svg-custom-border-white" d="m26.4 75.4c1-0.8 2.1-1.6 3.1-2.4"></path>
	<path class="svg-custom-border-white" d="m13.5 73.3c1.7-1.2 3.4-2.4 5-3.6"></path>
	<path class="svg-custom-border-white" d="m9.6 87.4c2.9-1.7 5.7-3.4 8.6-5.1"></path>
	<path class="svg-custom-border-white" d="m24.1 87c2-2 4.4-3.5 7-4.7"></path>
	<path class="svg-custom-border-white" d="m35.4 78c1.8-1.5 3.7-2.9 5.8-4"></path>
	<path class="svg-custom-border-white" d="m39.6 90.9c2.8-1.8 5.5-3.6 8.3-5.4"></path>
	<path class="svg-custom-border-white" d="m54.5 81.1c1.7-1.2 3.4-2.3 5.1-3.5"></path>
	<path class="svg-custom-border-white" d="m56.8 95.1c2.9-2 5.8-4 8.8-6"></path>
	<path class="svg-custom-border-white" d="m74.8 86.3c1.7-1.3 3.4-2.6 5.1-3.8"></path>
	<path class="svg-custom-border-white" d="m71.7 98.3c2.1-0.7 4-1.9 5.6-3.3"></path>
	<path class="svg-custom-border-white" d="m46.3 113.2c2.9-1.3 5.7-3.1 8.1-5.2"></path>
	<path class="svg-custom-border-white" d="m42.4 102.7c1.8-1.3 3.7-2.5 5.5-3.8"></path>
	<path class="svg-custom-border-white" d="m83 104.2c1.9-1.7 4.1-3.3 6.3-4.5"></path>
	<path class="svg-custom-border-white" d="m87.3 90.1c3-1.6 5.8-3.5 8.2-5.8"></path>
	<path class="svg-custom-border-white" d="m103.7 84.7c1.6-0.7 3-1.6 4.3-2.7"></path>
	<path class="svg-custom-border-white" d="m109.5 71.4c3.5-2 6.7-4.4 9.6-7.1"></path>
	<path class="svg-custom-border-white" d="m125.9 53.9c1.3-0.7 2.5-1.6 3.5-2.7"></path>
	<path class="svg-custom-border-white" d="m115.4 28.5c3.7-1.9 7.1-4.2 10.2-7"></path>
	<path class="svg-custom-border-white" d="m131.4 40.9c1.4-0.7 2.7-1.7 3.6-3"></path>
	<path class="svg-custom-border-white" d="m113.5 76.9c1.7-1.2 3.4-2.3 5.1-3.5"></path>
	<path class="svg-custom-border-white" d="m98.2 107.3c3-1.7 6-3.6 8.8-5.6"></path>
	<path class="svg-custom-border-white" d="m70.1 112.8c1.2-0.8 2.3-1.6 3.5-2.4"></path>
	<path class="svg-custom-border-white" d="m99.4 21.9c3.3-1.7 6.6-3.5 9.8-5.4"></path>
	<path class="svg-custom-border-white" d="m19.7 96 10.2-6.6"></path>
</svg>