<svg xmlns="http://www.w3.org/2000/svg" viewBox="0 0 500 132.36" fill="#fff"><path d="M59.37 63.51V6.22H75.1v117H59.37v-7.06a25.44 25.44 0 01-20.22 9.15q-14.92 0-23.83-10.59t-8.9-25.38q0-16 9.55-25.75a31.48 31.48 0 0123.34-9.71q12.69 0 20.06 9.63zM41.24 68a16.82 16.82 0 00-13.56 6.26 23.24 23.24 0 00-5.22 15.4 23 23 0 005.22 15.25 16.82 16.82 0 0013.56 6.26 18.29 18.29 0 0013.56-5.62q5.54-5.61 5.53-15.73 0-10.42-5.53-16.12A18.17 18.17 0 0041.24 68z"/><path d="M143.45 98.17l13.16 7.38a39.24 39.24 0 01-8.82 11.55q-9.31 8.19-22.63 8.19a33.88 33.88 0 01-23.75-9.15q-9.94-9.15-10-26.32 0-16 9-26t23.91-9.95q16.68 0 25.35 12.36 6.25 9 6.26 24.55v2.4h-48.42q.31 8.67 5.86 13.32a18.78 18.78 0 0012.43 4.66 16.37 16.37 0 0010.75-3.69 21.27 21.27 0 006.9-9.3zm-34.82-17.81h31.29a15.48 15.48 0 00-5.53-9 15.66 15.66 0 00-10-3.37 15.33 15.33 0 00-10 3.37 17.34 17.34 0 00-5.76 9z"/><path d="M212.29 67.2l-13 6.9q-2.24-6.1-7.54-6.1a6.39 6.39 0 00-3.53 1 3.65 3.65 0 00-1.6 3.29 5.18 5.18 0 00.16 1.29 4.19 4.19 0 00.48 1.2 6.65 6.65 0 00.64 1 5.45 5.45 0 001 .89l1 .8a9.06 9.06 0 001.28.8 8.33 8.33 0 001.37.64 11.53 11.53 0 011.52.73 11.84 11.84 0 001.52.72 101.51 101.51 0 0112.84 6.9q8.19 5.94 8.19 15.08a21.43 21.43 0 01-7.15 16.29 24.78 24.78 0 01-17.57 6.66 22.55 22.55 0 01-3.93-.4 49.07 49.07 0 01-6.18-1.77 19.32 19.32 0 01-7.62-5.13 27 27 0 01-5.69-9.39l13.15-6.1a14.43 14.43 0 004.1 6.18 10.12 10.12 0 007 2.49 8 8 0 005.69-2 6.76 6.76 0 002.17-5.21 7.09 7.09 0 00-1.28-4.1 9 9 0 00-2.49-2.56c-.8-.48-2-1.1-3.45-1.85q-12.53-5.94-13.48-6.58a16.73 16.73 0 01-8-14.76q0-9.3 6-14.76T193 53.88q13.51 0 19.29 13.32z"/><path d="M279.2 98.17l13.16 7.38a39.24 39.24 0 01-8.82 11.55q-9.32 8.19-22.63 8.19a33.88 33.88 0 01-23.75-9.15q-9.94-9.15-9.95-26.32 0-16 9-26t23.91-9.95q16.68 0 25.35 12.36 6.26 9 6.26 24.55v2.4h-48.47q.31 8.67 5.86 13.32a18.78 18.78 0 0012.43 4.66 16.39 16.39 0 0010.75-3.69 21.27 21.27 0 006.9-9.3zm-34.82-17.81h31.29a15.48 15.48 0 00-5.53-9 15.66 15.66 0 00-10-3.37 15.33 15.33 0 00-10 3.37 17.34 17.34 0 00-5.76 9z"/><path d="M308.73 123.2V55.65h15.72v6.09q6.58-7.86 15.89-7.86a23.33 23.33 0 0112.68 4L346 72.17c-3.11-2.13-6-3.21-8.83-3.21a11 11 0 00-9.95 5.3q-2.73 4.33-2.73 14v35z"/><path d="M353 55.65h17.66L388 94.16l17.33-38.51H423L388 128z"/><path d="M480.42 98.17l13.16 7.38a39.24 39.24 0 01-8.82 11.55q-9.31 8.19-22.63 8.19a33.88 33.88 0 01-23.75-9.15q-9.94-9.15-9.95-26.32 0-16 9-26t23.91-9.95q16.68 0 25.35 12.36 6.26 9 6.26 24.55v2.4h-48.47q.31 8.67 5.86 13.32a18.78 18.78 0 0012.43 4.66 16.39 16.39 0 0010.75-3.69 21.27 21.27 0 006.9-9.3zM445.6 80.36h31.29a15.48 15.48 0 00-5.53-9 15.66 15.66 0 00-10-3.37 15.33 15.33 0 00-9.95 3.37 17.34 17.34 0 00-5.81 9z"/></svg>