<svg width="90" xmlns="http://www.w3.org/2000/svg" viewBox="0 0 2407.3 976.98" fill="currentColor"><path d="M1232.84,393.17a1.38,1.38,0,0,0-.55-1.19,2.51,2.51,0,0,0-1.49-.39h-.88v3.15h.88a2.44,2.44,0,0,0,1.49-.4A1.36,1.36,0,0,0,1232.84,393.17Z"/><path d="M1191,391.59h-1.72v7.2H1191a4,4,0,0,0,2.83-1,3.72,3.72,0,0,0,0-5.2A3.93,3.93,0,0,0,1191,391.59Z"/><path d="M1280.08,76.51c42.58,41.9,99.74,27.33,99.74,27.33-13-37.58-70.14-83.35-106.35-83.8-33.4-.42-40-17.11-40.88-19.69C1240,25,1237.69,34.81,1280.08,76.51Z"/><path d="M1232.59.35c0-.12-.07-.23-.1-.35S1232.52.13,1232.59.35Z"/><path d="M1366.15,41.67c15.72,26.64,43.5,67.63,120,67.63,0,0-13-61.71-63.08-81.06s-59.66-16.17-90.4-13.89C1332.68,14.35,1350.44,15,1366.15,41.67Z"/><path d="M1392.34,128.43c-18.79,7.12-37.8,16.4-53.74,41.67s-14.12,35.75-14.12,35.75,17.07-.73,25.73-2c22.55-3.41,52.15-16.39,59.21-22.09s34.38-30.28,45.54-50.09C1455,131.62,1410.38,121.6,1392.34,128.43Z"/><path d="M1464.75,171.24c-30.91,27.15-28.35,67.29-28.35,67.29,9.44-5.66,16.13-6.92,19.66-7.11a45.74,45.74,0,0,0,13.07-2.47c7.9-2.86,20.48-8.86,38-21.5,32.62-23.57,45.6-63.54,45.6-63.54C1495.84,139.47,1495.67,144.09,1464.75,171.24Z"/><path d="M1588.23,240.07c17.93-21.18,13-24.08,33.82-61.32,0,0-30.4-2.22-44.41,13.5s-9.22,47.3-55,62C1522.65,254.24,1570.3,261.24,1588.23,240.07Z"/><path d="M1611.84,59.58c.15-.83.24-1.29.24-1.29A4.94,4.94,0,0,0,1611.84,59.58Z"/><path d="M1721.36,226.36h0Z"/><path d="M1644.44,313c2.84,1.18,29.78,10.95,49.39-34.95,20-46.87,27.08-51.43,27.53-51.68-.25.13-8,4.25-23.43,14.1a73.4,73.4,0,0,0-16.39,14.1,59.31,59.31,0,0,0,0-6.67c10.4-5.64,29.33-21.48,12.09-57.41-22.88-47.7-17.42-64.44-17.42-64.44-13.66,16.63-13.66,51.35-7.17,72.53a79.91,79.91,0,0,1,3.57,19c-5.56-10.75-12.78-20-18.94-27.18-1-1.17-2.07-2.32-3.16-3.47l.08.07c7.29-13.21,11.62-37.6-15.71-77.68-22.17-32.52-23.35-45.85-23-49.72-1.48,8.2-8.89,53.42,4.23,73,14.46,21.52,12.08,36.09,12.08,36.09l0,0c-16.67-11.1-37.22-20.86-59.6-30.25a182.38,182.38,0,0,0,28.23,5.5s-2-47.13-42.81-76.73-50.56-30.75-82.89-31.88c0,0,15,3.06,21.4,25.66s25.87,45.48,40.76,59.73a56.61,56.61,0,0,0,11.25,8.11c-47.37-16.23-162.45-24.5-162.45-24.5s14,4.78,67.29,13,83.35,13.67,111,24.25,46.11,18.79,65.93,35.19c1.78,1.47,3.47,2.88,5.1,4.25-.58,3.3-5,29.47-2.49,39.91,2.74,11.16,11.39,27.1,19.36,34.47S1661.72,278,1661.72,278s7.75-7.52,9.57-21-.91-19.81-6.49-32.79-13.55-18.9-19.89-24.6c-5-4.51-7.68-11.72-8.57-14.53,13.49,11.71,21.83,21,31.65,39,7.7,14.13,9.53,29.05,3.48,44.31-1.49,2.35-3,4.77-4.51,7.26-8.16,13.24-22.22,26.52-23.09,27.33a184.64,184.64,0,0,1-17.55,12.64c-2.76,1.77-5.49,3.45-8.22,5.09a27,27,0,0,0,3-3.15c5.37-6.71,14.83-20.74,13.31-34.85-1.79-16.62-1.79-38.48-1.79-38.48s-11,15.48-20.07,27.55-7.4,23.05-7.63,37.4a96.14,96.14,0,0,1-2.18,20.15c-19.16,10-38.41,17.31-60.38,23.74a79.2,79.2,0,0,0,8.71-8.88c5.36-6.21,5.69-6.6,11.38-15.94,5.8-9.5,3.42-25.05,2.73-31.2s2-18,2-18a40.29,40.29,0,0,1-13.43,10.93c-7.45,3.91-20.35,22.39-22.09,41-1.34,14.34-5.61,23.35-7.77,27.12-16.84,4.33-35.42,8.46-56.67,13,12.85-4.54,26.19-12.7,30.45-28,6.32-22.71,15.2-31.08,15.2-31.08s-6.88,1.59-10,3.47c-6.6,4-8.48,1.14-14.8,4.51-18.41,9.83-25.1,25.83-27.67,31.81s-17.38,24.4-17.4,24.42c-28.16,5.79-49,9.27-66.41,11.39,2-.74,4.8-1.81,8.61-3.36a41.52,41.52,0,0,0,25-29.38c3.19-13.89,13.44-23.68,13.44-23.68a118.45,118.45,0,0,0-13,7.06c-11,6.83-11.85,2.05-21.18,8.65s-10.62,13.69-15.71,22.32c-5.53,9.35-12.78,19.75-13,20-19.58,1.67-35.91,1.68-56.71,1.84l-6,0,9.43-4c6.49-2.73,14.52-13.32,16.57-22.71s12.29-18.28,12.29-18.28-29.54,8-35.35,22.21c-5.36,13.09-15.86,21.64-17.43,22.86-17.88.11-21,.07-21.4.05v-3.24a7,7,0,0,0-7-7h-67.81a7,7,0,0,0-7,7v3.16c-.43.05-3.52.12-21.41,0-1.6-1.24-12.07-9.78-17.42-22.85-5.81-14.18-35.35-22.21-35.35-22.21s10.24,8.88,12.29,18.28,10.08,20,16.57,22.71l9.43,4-6,0c-20.81-.16-37.14-.17-56.71-1.84-.19-.28-7.45-10.68-13-20-5.1-8.63-6.38-15.71-15.72-22.32s-10.13-1.82-21.17-8.65a119.56,119.56,0,0,0-13-7.06s10.24,9.79,13.43,23.68a41.52,41.52,0,0,0,25,29.38c3.81,1.55,6.59,2.62,8.62,3.36-17.45-2.12-38.26-5.6-66.42-11.39,0,0-14.84-18.45-17.4-24.42s-9.26-22-27.67-31.81c-6.32-3.37-8.2-.47-14.8-4.51-3.07-1.88-10-3.47-10-3.47s8.88,8.37,15.2,31.08c4.26,15.32,17.6,23.48,30.45,28-21.25-4.57-39.83-8.7-56.67-13-2.16-3.77-6.43-12.78-7.77-27.12-1.74-18.59-14.64-37.07-22.09-41a40.29,40.29,0,0,1-13.43-10.93s2.73,11.84,2.05,18-3.07,21.7,2.73,31.2c5.69,9.34,6,9.73,11.38,15.94a79.2,79.2,0,0,0,8.71,8.88c-22-6.43-41.22-13.75-60.38-23.74a96.14,96.14,0,0,1-2.18-20.15c-.23-14.35,1.48-25.33-7.63-37.4s-20.06-27.55-20.06-27.55,0,21.86-1.8,38.48c-1.52,14.11,7.94,28.14,13.31,34.85a27,27,0,0,0,3,3.15c-2.72-1.64-5.46-3.32-8.21-5.09a184.85,184.85,0,0,1-17.56-12.64C798,302.28,784,289,775.81,275.76c-1.54-2.49-3-4.91-4.51-7.26-6-15.26-4.22-30.18,3.48-44.31,9.82-18,18.16-27.31,31.65-39-.89,2.81-3.54,10-8.57,14.53-6.34,5.7-14.3,11.62-19.89,24.6s-8.31,19.35-6.49,32.79,9.57,21,9.57,21,5.46-15.32,13.43-22.69S811.1,232,813.84,220.88c2.55-10.44-1.91-36.61-2.49-39.91,1.63-1.37,3.33-2.78,5.11-4.25,19.81-16.4,38.25-24.6,65.92-35.19s57.72-16,111-24.25,67.29-13,67.29-13-115.08,8.27-162.45,24.5a56.32,56.32,0,0,0,11.25-8.11c14.89-14.25,34.38-37.12,40.76-59.73s21.4-25.66,21.4-25.66c-32.33,1.13-42.13,2.27-82.89,31.88s-42.81,76.73-42.81,76.73a182.38,182.38,0,0,0,28.23-5.5c-22.38,9.39-42.93,19.15-59.59,30.25l0,0s-2.38-14.57,12.08-36.09c13.12-19.53,5.71-64.75,4.23-72.95.34,3.87-.84,17.2-23,49.72-27.33,40.08-23,64.47-15.71,77.68l.08-.07c-1.09,1.15-2.15,2.3-3.16,3.47-6.16,7.15-13.38,16.43-18.94,27.18a79.91,79.91,0,0,1,3.57-19c6.49-21.18,6.49-55.9-7.17-72.53,0,0,5.46,16.74-17.42,64.44-17.24,35.93,1.69,51.77,12.09,57.41a59.31,59.31,0,0,0,0,6.67,73.4,73.4,0,0,0-16.39-14.1c-15.45-9.85-23.18-14-23.43-14.1.45.25,7.51,4.81,27.53,51.68,19.61,45.9,46.56,36.13,49.39,34.95h0a214.26,214.26,0,0,0,28.3,17.57l-.31-.16c-27.5,1.37-25.6-2.56-45.24-9.39S730,325,730,325s12.47,1.19,22.71,4.78,16.51,9.15,25.22,14.34,17.13,8.25,32.85,7.52c14.69-.68,29.66-14.08,29.66-14.08l-.24-.11C864.55,349,893,359.56,920.37,367.84h-.06c-17.59-.68-32.81-2.24-54.84,9S830,386.6,830,386.6c10.59,5.46,26,9.73,34.33,10.25s26.47,0,36-10.18c8.9-9.47,21-17,22.66-18.05,8,2.39,15.94,4.59,23.62,6.55,13.56,3.45,26.15,6.42,38.43,9l-.23,0s-8.65,7.6-27.95,9.31S918.41,403,909.7,418.37c0,0,12.81-4.79,26.13-2.57s25.79-2.22,33.48-4.1,23-11,28.51-25a722.83,722.83,0,0,0,74.59,10h0c-10.25,3.95-26.27,13.6-41.3,30.2s-24.82,18.69-24.82,18.69c19.36,3.65,43-3.41,53.29-16.85,9.52-12.47,17.85-29.2,19-31.52,6.43.52,13.09,1,20.06,1.48,18.39,1.21,33.09,1.86,44.66,2.16-5.89,3.39-21.89,13.1-30.43,23.1-10.59,12.41-19.92,15.6-19.92,15.6s10.25,5.35,25.16-.8,17.19-11.86,22-19.18c3.67-5.63,9.3-15,11.43-18.55,21.11.31,29-.63,29-.63v3.31a7,7,0,0,0,7,7h67.81a7,7,0,0,0,7-7v-3.31s7.88.94,29,.63c2.13,3.56,7.76,12.92,11.44,18.55,4.78,7.32,7,13,22,19.18s25.16.8,25.16.8-9.33-3.19-19.92-15.6c-8.54-10-24.54-19.71-30.43-23.1,11.57-.3,26.27-.95,44.66-2.16,7-.47,13.63-1,20.06-1.48,1.14,2.32,9.48,19.05,19,31.52,10.25,13.44,33.93,20.5,53.29,16.85,0,0-9.79-2.08-24.82-18.69s-31-26.25-41.3-30.2h0a723.41,723.41,0,0,0,74.6-10c5.47,14,20.82,23.1,28.5,25s20.16,6.32,33.48,4.1,26.13,2.57,26.13,2.57c-8.71-15.38-27.84-23.23-47.14-24.94s-28-9.31-28-9.31l-.23,0c12.28-2.57,24.88-5.54,38.43-9,7.68-2,15.6-4.16,23.62-6.55,1.64,1,13.76,8.58,22.66,18.05,9.56,10.18,27.67,10.69,36,10.18s23.73-4.79,34.32-10.25c0,0-13.49,1.54-35.52-9.74s-37.25-9.71-54.84-9h-.06c27.39-8.28,55.82-18.85,80.13-30.44l-.24.11s15,13.4,29.66,14.08c15.72.73,24.25-2.39,32.85-7.52s15-10.76,25.22-14.34,22.71-4.78,22.71-4.78-31.42-10.76-51.06-3.93-17.74,10.76-45.24,9.39l-.31.16a214.26,214.26,0,0,0,28.3-17.57Zm-449.8,85.51a5.28,5.28,0,0,1-3.67,1.28h-2.85v-9.19H1191a5.26,5.26,0,0,1,3.67,1.3,4.3,4.3,0,0,1,1.42,3.32A4.23,4.23,0,0,1,1194.64,398.5Zm10.65-6.91h-3.83v2.85h3.71v1h-3.71v3.36h3.83v1h-5v-9.19h5Zm9,7.6a3.12,3.12,0,0,1-2.14.75,3,3,0,0,1-2.13-.76,2.93,2.93,0,0,1-1-2h1.23a2,2,0,0,0,.61,1.33,1.87,1.87,0,0,0,1.3.45,2,2,0,0,0,1.3-.4,1.54,1.54,0,0,0,0-2.23,4.8,4.8,0,0,0-1.34-.74l-.76-.29c-1.42-.54-2.12-1.38-2.12-2.51a2.15,2.15,0,0,1,.79-1.73,3.08,3.08,0,0,1,2-.66,2.73,2.73,0,0,1,1.88.66,3.15,3.15,0,0,1,1,1.79h-1.21a1.67,1.67,0,0,0-1.74-1.42,1.8,1.8,0,0,0-1.12.33,1.08,1.08,0,0,0-.44.88,1.29,1.29,0,0,0,.36.95,3.21,3.21,0,0,0,1.12.67l.76.29a7.71,7.71,0,0,1,.89.4,5.54,5.54,0,0,1,.76.53,1.91,1.91,0,0,1,.59.76,2.37,2.37,0,0,1,.2,1A2.44,2.44,0,0,1,1214.28,399.19Zm10.08-7.6h-3.84v2.85h3.71v1h-3.71v3.36h3.84v1h-5v-9.19h5Zm9.81,8.19-3.23-4h-1v4h-1.13v-9.19h2a3.36,3.36,0,0,1,2.42.75,2.41,2.41,0,0,1,.78,1.83,2.15,2.15,0,0,1-.51,1.48,3.17,3.17,0,0,1-1.33.86l3.42,4.27Zm7.53.42-4.26-9.61h1.25l3.06,7,3-7h1.12Zm13-8.61h-3.84v2.85h3.72v1h-3.72v3.36h3.84v1h-5v-9.19h5Z"/><path d="M1210.18.35c.07-.22.1-.35.1-.35S1210.22.23,1210.18.35Z"/><path d="M1063,103.84s57.16,14.57,99.74-27.33c42.39-41.7,40.1-51.52,47.49-76.16-.83,2.58-7.48,19.27-40.88,19.69C1133.09,20.49,1075.93,66.26,1063,103.84Z"/><path d="M1076.62,41.67c15.71-26.64,33.47-27.32,33.47-27.32-30.74-2.28-40.3-5.47-90.4,13.89s-63.08,81.06-63.08,81.06C1033.12,109.3,1060.91,68.31,1076.62,41.67Z"/><path d="M1033.35,181.71c7.06,5.7,36.66,18.68,59.21,22.09,8.66,1.32,25.73,2,25.73,2s1.82-10.47-14.12-35.75-35-34.55-53.74-41.67c-18-6.83-62.62,3.19-62.62,3.19C999,151.43,1026.29,176,1033.35,181.71Z"/><path d="M935.66,207.45c17.5,12.64,30.08,18.64,38,21.5a45.61,45.61,0,0,0,13.06,2.47c3.53.19,10.22,1.45,19.66,7.11,0,0,2.56-40.14-28.35-67.29s-31.09-31.77-88-27.33C890.06,143.91,903,183.88,935.66,207.45Z"/><path d="M820.73,178.75c20.83,37.24,15.88,40.14,33.81,61.32s65.58,14.17,65.58,14.17c-45.77-14.69-41-46.28-55-62S820.73,178.75,820.73,178.75Z"/><path d="M830.93,59.58a4.94,4.94,0,0,0-.24-1.29S830.78,58.75,830.93,59.58Z"/><path d="M721.41,226.36h0Z"/><path d="M287.33,796.51q0,72.29-51.65,118.84T102.87,961.91H0V629.34H102.87q81.58,0,133,47T287.33,796.51ZM40.79,926h62.08q63.85,0,102.43-36.36t38.58-94q0-57.64-38.36-94T102.87,665.26H40.79Z"/><path d="M616.79,804.49H482.44V926H621.23v35.92H441.64V629.34H621.23v35.92H482.44V768.58H616.79Z"/><path d="M862,761.48l27.49,10.64a248,248,0,0,1,32.15,14.64,194.85,194.85,0,0,1,27.49,18.84,73.84,73.84,0,0,1,21.28,27.72,88.23,88.23,0,0,1,7.32,36.36q0,43.46-31,70.72t-77.6,27.27q-46.56,0-77.15-27.49t-35-72.72h44.34q4,31.49,22.17,47.89t47,16.4q28.83,0,47-14.41t18.18-41.46q0-24.82-16.63-39.24t-48.56-26.83l-27.49-10.64q-76.71-29.26-76.71-90.9,0-38.13,28.82-62.3t73.17-24.17q41.24,0,68.28,24.17t35,64.52h-43.9q-13.29-51.43-63-51.44-24.84,0-40.57,12.2T808.34,703q0,21.28,13.09,34.59T862,761.48Z"/><path d="M1306.74,804.49H1172.39V926h138.79v35.92H1131.59V629.34h179.59v35.92H1172.39V768.58h134.35Z"/><path d="M1660.59,722.46q0,32.82-18.63,53.65t-47.89,31l123.72,154.76h-51.44L1549.29,815.14h-36.8V961.91h-40.8V629.34h73.16q59.42,0,87.58,26.83T1660.59,722.46Zm-116.18-57.2h-31.92v114h31.92q34.14,0,53.88-14.19T1618,722.46q0-28.82-19.73-43T1544.41,665.26Z"/><path d="M1830,629.34,1940.39,881.2,2050.8,629.34h40.79L1938.61,977,1784.75,629.34Z"/><path d="M2402.87,804.49H2268.51V926H2407.3v35.92H2227.72V629.34H2407.3v35.92H2268.51V768.58h134.36Z"/></svg>
