<svg xmlns="http://www.w3.org/2000/svg" viewBox="0 0 24 24" fill="currentColor" width="24" height="24"><path d="M17.47,14.38c-.3-.15-1.76-.87-2-1s-.47-.15-.67.14-.76,1-.94,1.17-.34.22-.64.07a8,8,0,0,1-2.39-1.47,8.9,8.9,0,0,1-1.65-2.06c-.18-.3,0-.46.13-.61s.29-.34.44-.52a1.9,1.9,0,0,0,.3-.49.53.53,0,0,0,0-.52C9.92,9,9.33,7.52,9.08,6.92s-.49-.5-.67-.51H7.84a1.07,1.07,0,0,0-.79.37A3.32,3.32,0,0,0,6,9.25a5.73,5.73,0,0,0,1.21,3.07,13.3,13.3,0,0,0,5.08,4.49,17.33,17.33,0,0,0,1.69.63,4.25,4.25,0,0,0,1.87.12,3.08,3.08,0,0,0,2-1.42A2.39,2.39,0,0,0,18,14.73c-.07-.12-.27-.2-.57-.35m-5.42,7.41h0a10,10,0,0,1-5-1.38l-.36-.22-3.74,1,1-3.64-.23-.38a9.76,9.76,0,0,1-1.51-5.26A9.88,9.88,0,0,1,19,4.91a9.77,9.77,0,0,1,2.89,7,9.9,9.9,0,0,1-9.88,9.89m8.41-18.3a11.89,11.89,0,0,0-20.3,8.4,11.9,11.9,0,0,0,1.58,5.95L.06,24l6.3-1.65a12,12,0,0,0,5.69,1.44h0a11.89,11.89,0,0,0,8.41-20.3"/></svg>
