<svg width="390" height="304" viewBox="0 0 218 170" xmlns="http://www.w3.org/2000/svg">
			<path class="fill-dark" d="m143.6 25.1c-5.9-5.6-10.9-12.2-17.8-16.5-13.7-8.6-33.5-5.4-43.8 7-3.9 4.6-6.4 10.2-9.5 15.4-8.4 14-21.1 25-29.9 38.7s-13 32.7-3.4 45.9c9.7 13.4 28.8 15.4 41.7 25.6 6.3 5.1 10.9 12.1 16.9 17.6 19 17.3 52.5 14.6 68.6-5.4 9.9-12.4 13.4-29.3 24.8-40.4 4-3.9 8.9-6.9 12.8-10.9 5.1-5.2 8.4-12 10.8-19 3.1-9.3 4.7-19.6 1.4-28.8-5.7-16-18.7-15.9-32.5-14.4-15 1.8-29.4-4.6-40.1-14.8z"></path>
			<path class="svg-custom-border-white" d="m17.8 72.7c3.9-3.3 8.1-6.2 12.6-8.8"></path>
			<path class="svg-custom-border-white" d="m18 86.5c4.1-2.9 8.5-5.5 13-7.8"></path>
			<path class="svg-custom-border-white" d="m33.3 93c4.6-2.3 9-5.1 13.1-8.3"></path>
			<path class="svg-custom-border-white" d="m47.6 66.8c3.9-1.8 7.6-4.1 10.9-6.8"></path>
			<path class="svg-custom-border-white" d="m73.7 55.5c3-1.6 5.9-3.2 8.9-4.8"></path>
			<path class="svg-custom-border-white" d="m67.7 69.1c3.4-2.5 7-4.6 10.8-6.4"></path>
			<path class="svg-custom-border-white" d="m64.8 80.5c4.5-2.2 8.9-4.8 13.1-7.7"></path>
			<path class="svg-custom-border-white" d="m71.4 93.6c3.8-1.6 7.4-3.6 10.7-5.9"></path>
			<path class="svg-custom-border-white" d="m70.2 121.5c3.6-2.1 7.2-4.3 10.8-6.4"></path>
			<path class="svg-custom-border-white" d="m54.2 119.2c3.4-2.4 6.7-4.7 10.1-7.1"></path>
			<path class="svg-custom-border-white" d="m36.9 114.9c3.4-2.3 6.8-4.7 10.2-7"></path>
			<path class="svg-custom-border-white" d="m51.1 99.5c2.4-2.7 5.3-5.1 8.4-7"></path>
			<path class="svg-custom-border-white" d="m7.7 121.4c4-2.6 7.9-5.1 11.9-7.7"></path>
			<path class="svg-custom-border-white" d="m17.8 132.7c2.6-1.8 5.2-3.5 7.8-5.3"></path>
			<path class="svg-custom-border-white" d="m21.4 154.1c4.4-3 8.9-6.1 13.3-9.1"></path>
			<path class="svg-custom-border-white" d="m48.8 140.6c2.6-1.9 5.2-3.9 7.8-5.8"></path>
			<path class="svg-custom-border-white" d="m44 158.9c3.1-1.1 6-2.9 8.5-5.1"></path>
			<path class="svg-custom-border-white" d="m67.8 146.5c4.5-2.4 8.8-5.4 12.5-8.9"></path>
			<path class="svg-custom-border-white" d="m73.4 156.1c2.4-1 4.6-2.4 6.6-4.1"></path>
			<path class="svg-custom-border-white" d="m83.3 98.9c2.6-1.8 5.1-3.6 7.7-5.4"></path>
			<defs>
				<style>.svg-custom-border-white {fill: none;
stroke: #fff;
stroke-width: 1.1786;
stroke-linecap: round;
stroke-linejoin: round;
stroke-miterlimit: 10;}.fill-dark {
    fill: #19191c;
}</style>
			</defs>
		</svg>