<svg xmlns="http://www.w3.org/2000/svg" viewBox="0 0 496.5 117.2"><defs><style>.cls-1{fill:#fff;}.cls-2{fill:#ea110c;}</style></defs><path class="cls-1" d="M55.18,57.24V4H69.8V112.73H55.18v-6.57a23.63,23.63,0,0,1-18.79,8.5q-13.87,0-22.15-9.84A35.44,35.44,0,0,1,6,81.26q0-14.92,8.87-23.94a29.25,29.25,0,0,1,21.7-9Q48.32,48.29,55.18,57.24ZM38.33,61.42a15.62,15.62,0,0,0-12.6,5.82,21.6,21.6,0,0,0-4.85,14.31,21.41,21.41,0,0,0,4.85,14.17,15.62,15.62,0,0,0,12.6,5.82,17,17,0,0,0,12.6-5.22q5.15-5.22,5.15-14.62,0-9.69-5.15-15A16.92,16.92,0,0,0,38.33,61.42Z"/><path class="cls-1" d="M133.34,89.46l12.23,6.86a36.54,36.54,0,0,1-8.21,10.74q-8.64,7.6-21,7.6a31.47,31.47,0,0,1-22.07-8.5Q85,97.67,85,81.7q0-14.91,8.35-24.16t22.23-9.25q15.51,0,23.56,11.49Q145,68.13,145,82.6v2.24h-45q.3,8,5.44,12.38a17.51,17.51,0,0,0,11.56,4.32,15.21,15.21,0,0,0,10-3.43A19.85,19.85,0,0,0,133.34,89.46ZM101,72.9h29.08a14.39,14.39,0,0,0-5.14-8.35,14.55,14.55,0,0,0-9.32-3.13,14.24,14.24,0,0,0-9.25,3.13A16,16,0,0,0,101,72.9Z"/><path class="cls-1" d="M197.32,60.67l-12.08,6.42q-2.1-5.67-7-5.67a5.84,5.84,0,0,0-3.28,1,3.37,3.37,0,0,0-1.49,3.06,4.89,4.89,0,0,0,.14,1.19,4.38,4.38,0,0,0,.45,1.12,6.23,6.23,0,0,0,.6.89,4.9,4.9,0,0,0,.89.82l1,.75a8.77,8.77,0,0,0,1.2.75,9.51,9.51,0,0,0,1.26.59,11.67,11.67,0,0,1,1.42.67,9.2,9.2,0,0,0,1.42.67,96.8,96.8,0,0,1,11.93,6.42q7.6,5.52,7.61,14a19.91,19.91,0,0,1-6.64,15.13,23,23,0,0,1-16.33,6.19,20.15,20.15,0,0,1-3.66-.37,45.63,45.63,0,0,1-5.74-1.64,17.7,17.7,0,0,1-7.08-4.77,25,25,0,0,1-5.3-8.73l12.23-5.66a13.47,13.47,0,0,0,3.8,5.74,9.45,9.45,0,0,0,6.49,2.31,7.5,7.5,0,0,0,5.3-1.86,6.32,6.32,0,0,0,2-4.85A6.59,6.59,0,0,0,185.24,91a8.34,8.34,0,0,0-2.31-2.38c-.75-.45-1.82-1-3.21-1.72q-11.64-5.51-12.53-6.11a15.56,15.56,0,0,1-7.46-13.72q0-8.66,5.6-13.72a20.18,20.18,0,0,1,14.09-5.08Q191.95,48.29,197.32,60.67Z"/><path class="cls-1" d="M259.51,89.46l12.23,6.86a36.52,36.52,0,0,1-8.2,10.74,30.74,30.74,0,0,1-21,7.6,31.49,31.49,0,0,1-22.08-8.5q-9.24-8.49-9.24-24.46,0-14.91,8.35-24.16t22.22-9.25q15.51,0,23.57,11.49,5.81,8.35,5.81,22.82v2.24h-45q.3,8,5.44,12.38a17.55,17.55,0,0,0,11.56,4.32,15.25,15.25,0,0,0,10-3.43A19.83,19.83,0,0,0,259.51,89.46ZM227.15,72.9h29.08a15,15,0,0,0-23.72-8.35A16.09,16.09,0,0,0,227.15,72.9Z"/><path class="cls-1" d="M287,112.73V49.94h14.62V55.6q6.1-7.31,14.76-7.31A21.7,21.7,0,0,1,328.12,52L321.55,65.3a14.58,14.58,0,0,0-8.2-3,10.28,10.28,0,0,0-9.25,4.93q-2.53,4-2.53,13v32.52Z"/><path class="cls-1" d="M328.11,49.94h16.41l16.11,35.79,16.11-35.79h16.4L360.63,117.2Z"/><path class="cls-1" d="M446.54,89.46l12.23,6.86a36.54,36.54,0,0,1-8.21,10.74,30.73,30.73,0,0,1-21,7.6,31.47,31.47,0,0,1-22.07-8.5q-9.25-8.49-9.25-24.46,0-14.91,8.36-24.16t22.22-9.25q15.51,0,23.56,11.49,5.82,8.35,5.82,22.82v2.24h-45q.3,8,5.44,12.38a17.51,17.51,0,0,0,11.56,4.32,15.21,15.21,0,0,0,10-3.43A19.85,19.85,0,0,0,446.54,89.46ZM414.17,72.9h29.08a14.39,14.39,0,0,0-5.14-8.35,14.55,14.55,0,0,0-9.32-3.13,14.24,14.24,0,0,0-9.25,3.13A16,16,0,0,0,414.17,72.9Z"/><path class="cls-2" d="M477.18,111.91a9,9,0,1,1,6.34,2.61A8.64,8.64,0,0,1,477.18,111.91Z"/></svg>