<svg width="132" height="23.4333" xmlns="http://www.w3.org/2000/svg" viewBox="0 0 341.61 60.63" fill="#000">
<path fill="#ea110c" d="M53.22,50.71a29.79,29.79,0,0,0,7.58-20.4A29.52,29.52,0,0,0,52.12,8.72C46.36,2.93,39.05,0,30.4,0s-16,2.92-21.72,8.68A29.49,29.49,0,0,0,0,30.31C0,39,2.91,46.26,8.64,52s13.05,8.64,21.76,8.64a30.28,30.28,0,0,0,15.87-4.08l4.07,4.08h12.9Zm-22.82.38A19.51,19.51,0,0,1,15.9,45.3c-3.77-3.86-5.68-8.9-5.68-15s1.91-11.13,5.68-15a19.48,19.48,0,0,1,14.5-5.8,19.51,19.51,0,0,1,14.5,5.8c3.77,3.85,5.68,8.89,5.68,15a21,21,0,0,1-4.34,13.42l-8.36-8.27h-13l14,13.95A20.83,20.83,0,0,1,30.4,51.09Z" id="q" /><path d="M102,1.74c-8.15,0-14.84,2.42-19.89,7.2-5.87,5.54-8.84,12.78-8.84,21.53a27.37,27.37,0,0,0,8.84,20.81,27.35,27.35,0,0,0,19.49,7.6,29.1,29.1,0,0,0,15.1-4.12l.36-.22V42.64l-1.26,1.2c-4.18,4-8.88,6-14,6a18.07,18.07,0,0,1-13.53-5.52,19.24,19.24,0,0,1-5.34-13.84c0-5.72,1.76-10.48,5.22-14.16a17.92,17.92,0,0,1,13.57-5.51,20.61,20.61,0,0,1,14,5.76L117,17.69V5.94l-.34-.22A26.85,26.85,0,0,0,102,1.74Z"/><path d="M157.37,1.74a28,28,0,0,0-28.65,28.57,28,28,0,0,0,28.65,28.57A28,28,0,0,0,186,30.31,28,28,0,0,0,157.37,1.74Zm0,48.09a18.34,18.34,0,0,1-13.62-5.45c-3.54-3.61-5.33-8.35-5.33-14.07s1.79-10.45,5.33-14.07a19.77,19.77,0,0,1,27.24,0c3.53,3.62,5.33,8.35,5.33,14.07s-1.8,10.46-5.33,14.07A18.34,18.34,0,0,1,157.37,49.83Z"/><polygon points="210.14 2.75 200.44 2.75 200.44 57.88 225.9 57.88 225.9 48.66 210.14 48.66 210.14 2.75"/><path d="M261.42,1.74a28,28,0,0,0-28.66,28.57,28.66,28.66,0,1,0,57.31,0A28,28,0,0,0,261.42,1.74Zm0,48.09a18.34,18.34,0,0,1-13.62-5.45c-3.54-3.61-5.33-8.35-5.33-14.07s1.79-10.45,5.33-14.07a19.76,19.76,0,0,1,27.23,0c3.54,3.62,5.34,8.35,5.34,14.07s-1.8,10.46-5.34,14.07A18.3,18.3,0,0,1,261.42,49.83Z"/><path d="M324.67,34.67a15.46,15.46,0,0,0,11.39-15.41c0-5.82-2.25-10.27-6.68-13.25-3.22-2.16-8.13-3.26-14.57-3.26H304.49V57.88h9.7v-22h.31l15.35,22h11.76Zm1.1-11.52a6.47,6.47,0,0,1-2.08,2.35,10.46,10.46,0,0,1-2.93,1.23,16.13,16.13,0,0,1-2.72.54c-.67.06-1.35.08-2,.08h-1.82V11.81h2.06c7,0,10.43,2.46,10.43,7.53A7.64,7.64,0,0,1,325.77,23.15Z"/></svg>