<svg width="138" height="138" viewBox="0 0 138 138" fill="none" xmlns="http://www.w3.org/2000/svg">
<path d="M69 138C107.108 138 138 107.108 138 69C138 30.8924 107.108 0 69 0C30.8924 0 0 30.8924 0 69C0 107.108 30.8924 138 69 138Z" fill="#24D78C"/>
<path d="M70.7413 84.4543C73.7886 87.5016 73.7886 92.7256 70.7413 95.7729L64.429 102.085C61.3817 105.133 56.1577 105.133 53.1104 102.085L25.4669 74.224C22.4196 71.1767 22.4196 65.9527 25.4669 62.9054L31.7792 56.5931C34.8265 53.5458 40.0505 53.5458 43.0978 56.5931L70.7413 84.4543Z" fill="white"/>
<path d="M94.9022 36.3502C97.9495 33.3029 103.174 33.3029 106.221 36.3502L112.533 42.6625C115.58 45.7098 115.58 50.9338 112.533 53.9811L64.6467 101.65C61.5994 104.697 56.3754 104.697 53.3281 101.65L47.0158 95.3376C43.9685 92.2903 43.9685 87.0663 47.0158 84.019L94.9022 36.3502Z" fill="white"/>
</svg>
