<svg width="146" height="146" viewBox="0 0 146 146" fill="none" xmlns="http://www.w3.org/2000/svg">
<path d="M73 146C113.317 146 146 113.317 146 73C146 32.6832 113.317 0 73 0C32.6832 0 0 32.6832 0 73C0 113.317 32.6832 146 73 146Z" fill="#ea110c"/>
<path d="M107.543 89.1201C110.767 92.344 110.767 97.8708 107.543 101.095L101.095 107.543C97.8707 110.767 92.3438 110.767 89.1199 107.543L38.4574 56.8803C35.2334 53.6563 35.2334 48.1295 38.4574 44.9055L45.1356 38.2273C48.3596 35.0033 53.8864 35.0033 57.1104 38.2273L107.543 89.1201Z" fill="white"/>
<path d="M89.1199 38.4575C92.3438 35.2336 97.8707 35.2336 101.095 38.4575L107.773 45.1358C110.997 48.3597 110.997 53.8866 107.773 57.1105L56.8801 107.543C53.6561 110.767 48.1293 110.767 44.9054 107.543L38.4574 101.095C35.2334 97.8708 35.2334 92.344 38.4574 89.12L89.1199 38.4575Z" fill="white"/>
</svg>
