<svg xmlns="http://www.w3.org/2000/svg" viewBox="0 0 22 44"><path d="M18.8 0H3.2A3.2 3.2 0 000 3.2v37.6C0 42.6 1.4 44 3.2 44h15.6c1.8 0 3.2-1.4 3.2-3.2V3.2C22 1.5 20.6 0 18.8 0zm-5.7 1.2c.2 0 .3.1.3.3s-.1.3-.3.3-.3-.1-.3-.3c0-.2.1-.3.3-.3zm-3.1 0h2l.2.2-.2.4h-2l-.2-.2.2-.4zm11 39.6c0 1.2-1 2.2-2.2 2.2H3.2C2 43 1 42 1 40.8V3.2C1 2 2 1 3.2 1h2.3c.3 0 .5.2.5.5V2c0 .6.4 1 1 1h8c.6 0 1-.4 1-1v-.5c0-.3.2-.5.5-.5h2.3C20 1 21 2 21 3.2v37.6z"/><path d="M14.7 42.2H7.3l-.1.1.1.1h7.5l.1-.1-.2-.1z" fill="#fff"/></svg>